<?xml version="1.0" encoding="UTF-8" standalone="no"?><!DOCTYPE svg PUBLIC "-//W3C//DTD SVG 1.1//EN" "http://www.w3.org/Graphics/SVG/1.1/DTD/svg11.dtd"><svg width="100%" height="100%" viewBox="0 0 57 40" version="1.1" xmlns="http://www.w3.org/2000/svg" xmlns:xlink="http://www.w3.org/1999/xlink" xml:space="preserve" xmlns:serif="http://www.serif.com/" style="fill-rule:evenodd;clip-rule:evenodd;stroke-linejoin:round;stroke-miterlimit:2;"><path d="M27.839,19.898c0,3.812 2.745,6.926 6.108,6.926c3.442,0 6.188,-3.074 6.188,-6.926c0,-3.729 -2.746,-6.722 -6.148,-6.722c-3.403,0 -6.149,2.993 -6.149,6.722m15.648,0.082c0,5.375 -4.251,9.708 -9.5,9.708c-5.25,0 -9.5,-4.333 -9.5,-9.708c0,-5.333 4.25,-9.667 9.5,-9.667c5.291,0 9.5,4.291 9.5,9.667m-23.966,-1.942c0,-2.096 -0.087,-3.535 -0.259,-4.316c-0.171,-0.781 -0.44,-1.373 -0.804,-1.777c-0.207,-0.234 -0.482,-0.352 -0.826,-0.352c-0.513,0 -0.93,0.332 -1.255,0.997c-0.58,1.159 -0.871,2.747 -0.871,4.764l0,0.684l4.014,0m3.63,1.308l-7.57,0c0.089,2.421 0.576,4.335 1.461,5.741c0.678,1.081 1.495,1.621 2.449,1.621c0.589,0 1.126,-0.219 1.607,-0.655c0.484,-0.436 1,-1.221 1.55,-2.353l0.503,0.431c-0.748,2.019 -1.575,3.446 -2.479,4.287c-0.905,0.839 -1.952,1.26 -3.144,1.26c-2.046,0 -3.595,-1.041 -4.648,-3.124c-0.846,-1.68 -1.269,-3.764 -1.269,-6.249c0,-3.046 0.623,-5.471 1.867,-7.275c1.244,-1.804 2.703,-2.705 4.376,-2.705c1.396,0 2.609,0.758 3.637,2.275c1.028,1.515 1.581,3.765 1.66,6.745m-16.892,1.105c-1.956,0.663 -2.936,1.76 -2.936,3.247l0,1.487c0,0.938 0.431,1.643 1.292,1.643c0.939,0 1.644,-0.822 1.644,-1.839l0,-4.538m3.324,9.231c-1.213,0 -2.151,-0.626 -2.542,-2.033c-0.705,1.33 -1.918,2.033 -3.365,2.033c-2.19,0 -3.677,-1.682 -3.677,-4.576l0,-0.902c0,-3.443 2.66,-5.085 6.26,-6.416l0,-2.895c0,-0.939 -0.392,-1.486 -1.292,-1.486c-0.939,0 -1.253,0.548 -1.253,1.565l0,1.644l-3.169,0l0,-1.486c0,-2.778 1.526,-4.812 4.577,-4.812c3.051,0 4.499,2.112 4.499,5.086l0,10.718c0,0.588 0.236,0.901 0.782,0.94l0,2.62l-0.821,0l0.001,-0.001Zm46.121,-0.813l0,-12.958c0,-2.474 -0.167,-3.564 -0.752,-4.404c-0.379,-0.67 -0.923,-0.964 -1.635,-0.964c-0.628,0 -1.258,0.335 -2.011,1.174c-0.729,0.73 -1.743,1.967 -2.36,2.88c0.242,-1.352 0.223,-4.598 0.223,-4.598c-2.136,1.257 -3.225,1.593 -5.278,1.677l0,0.377c0.627,0.168 0.837,0.209 1.382,0.461c0.041,1.384 0.041,2.39 0.041,2.641l0,3.565l-0.041,3.564l0,4.112c0,0.963 0,1.342 -0.041,2.474c-0.461,0.418 -0.629,0.46 -1.215,0.711l0,0.418l6.116,0l0,-0.418c-0.544,-0.252 -0.712,-0.335 -1.131,-0.711l0,-13.63l0.208,-0.208c0.672,-0.63 1.299,-1.007 1.72,-1.007c0.878,0 1.13,0.671 1.13,2.768l0,12.077c-0.502,0.376 -0.67,0.46 -1.256,0.711l0,0.419l6.074,0l0,-0.502c-0.586,-0.209 -0.754,-0.293 -1.172,-0.628" style="fill:#fff;fill-rule:nonzero;"/></svg>