<?xml version="1.0" encoding="UTF-8" standalone="no"?><!DOCTYPE svg PUBLIC "-//W3C//DTD SVG 1.1//EN" "http://www.w3.org/Graphics/SVG/1.1/DTD/svg11.dtd"><svg width="100%" height="100%" viewBox="0 0 78 40" version="1.1" xmlns="http://www.w3.org/2000/svg" xmlns:xlink="http://www.w3.org/1999/xlink" xml:space="preserve" xmlns:serif="http://www.serif.com/" style="fill-rule:evenodd;clip-rule:evenodd;stroke-linejoin:round;stroke-miterlimit:2;"><g><path d="M49.036,26.437l0,3.35c0,0 -0.505,0.211 -1.093,0.211c0,0 -1.364,0.095 -1.364,-1.408c0,-1.503 1.279,-1.374 1.404,-1.327l0,0.832c0,0 -0.519,-0.132 -0.519,0.503c0,0.635 0.433,0.588 0.7,0.54l0,-2.699l0.873,0Z" style="fill:#fff;fill-rule:nonzero;"/><path d="M51.659,29.829c0,0 -0.378,0.171 -1.084,0.171c-0.707,0 -1.26,-0.28 -1.26,-0.917c0,-0.637 0.526,-1.068 1.302,-0.887l0,0.674c0,0 -0.109,-0.023 -0.188,-0.023c-0.079,0 -0.273,0.039 -0.273,0.185c0,0.162 0.218,0.199 0.336,0.199c0.118,0 0.164,-0.016 0.283,-0.046l0,-0.936c0,0 0.014,-0.174 -0.164,-0.208c-0.195,-0.042 -0.419,-0.042 -0.628,-0.007l0,-0.723c0,0 0.25,-0.072 0.621,-0.072c0.371,0 1.059,-0.014 1.059,0.989l0,1.601l-0.002,0Z" style="fill:#fff;fill-rule:nonzero;"/><path d="M58.594,29.829c0,0 -0.378,0.171 -1.084,0.171c-0.707,0 -1.26,-0.28 -1.26,-0.917c0,-0.637 0.526,-1.068 1.3,-0.887l0,0.674c0,0 -0.107,-0.023 -0.188,-0.023c-0.081,0 -0.273,0.039 -0.273,0.185c0,0.162 0.218,0.199 0.336,0.199c0.118,0 0.164,-0.016 0.283,-0.046l0,-0.936c0,0 0.014,-0.174 -0.164,-0.208c-0.197,-0.042 -0.417,-0.042 -0.628,-0.007l0,-0.723c0,0 0.25,-0.072 0.618,-0.072c0.368,0 1.059,-0.014 1.059,0.989l0,1.601l0.002,0Z" style="fill:#fff;fill-rule:nonzero;"/><path d="M66.108,29.829c0,0 -0.375,0.171 -1.082,0.171c-0.707,0 -1.262,-0.28 -1.262,-0.917c0,-0.637 0.526,-1.068 1.302,-0.887l0,0.674c0,0 -0.109,-0.023 -0.188,-0.023c-0.079,0 -0.273,0.039 -0.273,0.185c0,0.162 0.22,0.199 0.336,0.199c0.116,0 0.162,-0.016 0.283,-0.046l0,-0.936c0,0 0.014,-0.174 -0.162,-0.208c-0.199,-0.042 -0.419,-0.042 -0.63,-0.007l0,-0.723c0,0 0.252,-0.072 0.621,-0.072c0.368,0 1.056,-0.014 1.056,0.989l0,1.601Z" style="fill:#fff;fill-rule:nonzero;"/><path d="M55.075,28.297c0,0 0.019,-0.208 -0.204,-0.208c0,0 -0.1,0 -0.188,0.023l0,1.867l-0.878,0l0,-1.682c0,0 0.019,-0.208 -0.204,-0.208c0,0 -0.102,0 -0.19,0.023l0,1.867l-0.878,0l0,-2.511c0,0 0.533,-0.241 1.075,-0.241c0,0 0.408,-0.032 0.639,0.215c0,0 0.387,-0.222 0.878,-0.222c0.491,0 0.841,0.259 0.841,0.917l0,1.842l-0.894,0l0,-1.682l0.002,0Z" style="fill:#fff;fill-rule:nonzero;"/><path d="M61.045,29.979l-0.894,0l0,-1.682c0,0 0.019,-0.208 -0.206,-0.208c0,0 -0.097,0 -0.188,0.023l0,1.867l-0.876,0l0,-2.49c0,0 0.584,-0.269 1.098,-0.269c0.595,0 1.066,0.181 1.066,0.95l0,1.809Z" style="fill:#fff;fill-rule:nonzero;"/><path d="M62.497,27.225c-0.097,0.007 -0.199,0.035 -0.299,0.076l0,-0.859l-0.878,0l0,3.537l0.878,0l0,-1.867c0.088,-0.023 0.188,-0.023 0.188,-0.023c0.227,0 0.206,0.208 0.206,0.208l0,1.682l0.892,0l0,-1.809c0,-0.769 -0.382,-1.001 -0.987,-0.945Z" style="fill:#fff;fill-rule:nonzero;"/><path d="M65.161,27.049c0.408,0.202 0.727,0 0.727,0l0,-0.526c0,0 -0.422,0.204 -0.764,0c-0.345,-0.202 -0.695,0 -0.695,0l0,0.526c0,0 0.324,-0.204 0.734,0" style="fill:#fff;fill-rule:nonzero;"/><path d="M17.389,25.696c3.477,0 6.31,-2.062 7.387,-5.11l0,4.802l4.309,0l0,-10.924l0.924,0c0.461,0 0.924,0.308 0.924,0.924c0,0.616 -0.461,0.924 -0.924,0.924l0,3.387l0.153,0c0.924,0 1.23,0.338 1.23,1.262l0,4.431l4.309,0l0,-4.617c0,-1.723 -0.769,-2.863 -1.969,-3.417c0.892,-0.616 1.508,-1.571 1.508,-3.046c0,-2.648 -1.816,-4.156 -5.386,-4.156c-2.34,0 -4.186,0.431 -5.078,0.769l0,4.183c-1.077,-3.048 -3.908,-5.11 -7.387,-5.11c-4.464,0 -7.848,3.387 -7.848,7.848c0,4.461 3.387,7.848 7.848,7.848Zm-17.389,-7.848c0,4.464 3.079,7.848 7.848,7.848c1.478,0 2.863,-0.368 4.033,-1.047c-1.17,-0.924 -2.062,-2.124 -2.615,-3.509c-0.431,0.153 -0.892,0.246 -1.415,0.246c-2.154,0 -3.387,-1.538 -3.387,-3.539c0,-2.001 1.23,-3.539 3.387,-3.539c0.524,0 0.984,0.093 1.415,0.246c0.554,-1.385 1.445,-2.585 2.615,-3.509c-1.17,-0.674 -2.555,-1.042 -4.033,-1.042c-4.77,0 -7.848,3.387 -7.848,7.848Zm14.005,0c0,-2.001 1.23,-3.539 3.387,-3.539c2.157,0 3.387,1.538 3.387,3.539c0,2.001 -1.23,3.539 -3.387,3.539c-2.157,0 -3.387,-1.538 -3.387,-3.539Zm22.469,7.54l4.309,0l0,-10.924l0.924,0c0.461,0 0.924,0.308 0.924,0.924c0,0.616 -0.461,0.924 -0.924,0.924l0,3.387l0.153,0c0.924,0 0.862,0.338 0.924,1.262l0.308,4.431l4.309,0l-0.308,-4.617c-0.123,-1.693 -0.676,-2.831 -1.693,-3.387c0.924,-0.584 1.538,-1.571 1.538,-3.079c0,-2.648 -1.816,-4.156 -5.386,-4.156c-2.34,0 -4.186,0.431 -5.078,0.769l0,14.466l0,-0.002Zm11.696,0l8.617,0l0,-4.156l-4.309,0l0,-1.538l3.387,0l0,-3.692l-3.387,0l0,-1.538l4.309,0l0,-4.156l-8.617,0l0,15.082l0,-0.002Zm9.388,0l4.309,0l0,-4.802c1.077,3.046 3.908,5.11 7.387,5.11c4.464,0 7.848,-3.384 7.848,-7.848c0,-4.464 -3.387,-7.848 -7.85,-7.848c-3.477,0 -6.31,2.062 -7.387,5.11l0,-4.802l-4.309,0l0,15.082l0.002,-0.002Zm8.309,-7.54c0,-2.001 1.23,-3.539 3.387,-3.539c2.157,0 3.387,1.538 3.387,3.539c0,2.001 -1.23,3.539 -3.387,3.539c-2.157,0 -3.387,-1.538 -3.387,-3.539Z" style="fill:#fff;fill-rule:nonzero;"/></g></svg>