<?xml version="1.0" encoding="UTF-8" standalone="no"?><!DOCTYPE svg PUBLIC "-//W3C//DTD SVG 1.1//EN" "http://www.w3.org/Graphics/SVG/1.1/DTD/svg11.dtd"><svg width="100%" height="100%" viewBox="0 0 97 40" version="1.1" xmlns="http://www.w3.org/2000/svg" xmlns:xlink="http://www.w3.org/1999/xlink" xml:space="preserve" xmlns:serif="http://www.serif.com/" style="fill-rule:evenodd;clip-rule:evenodd;stroke-linejoin:round;stroke-miterlimit:2;"><g><path d="M11.354,22.898c-0.618,1.235 -1.069,1.592 -2.732,1.592l-3.753,0l0,-6.698l2.684,0c0.902,0 1.235,0.285 1.615,1.045l0.665,1.33l0.237,0l0,-5.653l-0.237,0l-0.665,1.33c-0.309,0.618 -0.665,1.045 -1.615,1.045l-2.684,0l0,-5.938l4.252,0c0.76,0 1.615,0.238 2.304,1.497l1.045,1.876l0.166,0l0,-4.323l-12.637,0l0,0.143l0.523,0.451c0.38,0.333 0.546,0.499 0.546,0.926l0,12.399c0,0.428 -0.166,0.594 -0.546,0.927l-0.523,0.451l0,0.142l12.827,0l0.047,-5.249l-0.166,0l-1.354,2.708Z" style="fill:#fff;fill-rule:nonzero;"/><path d="M48.004,14.038c-1.211,0 -2.185,0.974 -2.185,2.162c0,1.211 0.974,2.185 2.185,2.185c1.188,0 2.162,-0.974 2.162,-2.185c0,-1.188 -0.974,-2.162 -2.162,-2.162Z" style="fill:#fff;fill-rule:nonzero;"/><path d="M25.368,24.062l-3.515,-5.107l2.755,-3.349c0.214,-0.261 0.903,-0.998 1.52,-1.33l0,-0.142l-3.301,0l0,0.142c0.356,0.238 0.713,0.428 0.713,0.76c0,0.309 -0.214,0.641 -0.546,1.069l-1.663,2.09l-1.852,-2.684c-0.119,-0.166 -0.19,-0.356 -0.19,-0.522c0,-0.309 0.499,-0.523 0.76,-0.713l0,-0.142l-6.223,0l0,0.142c0.38,0.261 0.855,0.76 1.188,1.235l3.254,4.727l-3.088,3.729c-0.214,0.261 -0.903,0.998 -1.52,1.33l0,0.142l3.302,0l0,-0.142c-0.356,-0.238 -0.712,-0.428 -0.712,-0.76c0,-0.309 0.214,-0.641 0.546,-1.069l1.995,-2.47l1.972,2.85c0.119,0.166 0.333,0.428 0.333,0.736c0,0.309 -0.38,0.451 -0.76,0.713l0,0.142l6.223,0l0,-0.142c-0.38,-0.261 -0.879,-0.76 -1.188,-1.235Z" style="fill:#fff;fill-rule:nonzero;"/><path d="M33.206,24.561l-1.449,0l0,-9.478l1.116,0c2.969,0 3.278,2.637 3.278,4.893c0,2.399 -0.665,4.584 -2.945,4.584Zm0.95,-10.428l-7.173,0l0,0.142l0.523,0.451c0.38,0.332 0.546,0.499 0.546,0.926l0,12.827c0,0.428 -0.166,0.594 -0.546,0.926l-0.523,0.451l0,0.143l5.843,0l0,-0.143l-0.523,-0.451c-0.38,-0.332 -0.546,-0.499 -0.546,-0.926l0,-2.969l2.447,0c3.135,0 5.748,-2.114 5.748,-5.843c0,-3.23 -2.304,-5.534 -5.796,-5.534Z" style="fill:#fff;fill-rule:nonzero;"/><path d="M45.011,23.919l0,-9.786l-4.774,0l0,0.142l0.522,0.451c0.38,0.332 0.546,0.499 0.546,0.926l0,8.266c0,0.428 -0.166,0.594 -0.546,0.927l-0.522,0.451l0,0.142l5.843,0l0,-0.142l-0.522,-0.451c-0.38,-0.333 -0.546,-0.499 -0.546,-0.927Z" style="fill:#fff;fill-rule:nonzero;"/><path d="M80.403,18.076l-2.042,-0.451c-1.116,-0.237 -1.877,-0.475 -1.877,-1.378c0,-1.14 1.188,-1.449 1.995,-1.449c2.589,-0.047 3.729,1.52 4.323,2.304l0.095,0l0,-2.518c-0.618,-0.333 -1.853,-0.737 -3.99,-0.737c-3.254,0 -4.988,1.615 -4.988,3.705c0,2.494 1.52,3.254 3.421,3.706l0.807,0.19c0.95,0.214 2.304,0.356 2.304,1.568c0,0.926 -0.523,1.805 -2.09,1.805c-0.618,0 -2.969,-0.19 -4.204,-2.589l-0.119,0l0,2.565c0.831,0.57 2.637,0.974 4.157,0.974c3.182,0 5.344,-1.71 5.344,-4.252c0,-1.9 -1.282,-3.041 -3.136,-3.444Z" style="fill:#fff;fill-rule:nonzero;"/><path d="M58.669,18.812l-4.062,0c-0.024,-1.876 0.404,-4.085 2.09,-4.085c1.473,0 1.971,1.734 1.971,3.8l0,0.285Zm-1.686,-4.964c-4.157,0 -6.247,2.921 -6.247,6.009c0,3.492 2.399,5.867 7.007,5.867c1.354,0 2.922,-0.285 4.18,-0.998l0.024,-2.47l-0.095,0c-0.451,0.831 -1.829,2.47 -3.967,2.47c-2.803,0 -3.278,-2.566 -3.278,-4.917l7.458,0l0,-0.855c0,-3.373 -2.209,-5.107 -5.083,-5.107Z" style="fill:#fff;fill-rule:nonzero;"/><path d="M90.783,24.774c-1.568,0 -2.304,-1.306 -2.304,-5.012c0,-3.753 0.831,-4.964 2.328,-4.964c1.663,0 2.281,1.853 2.281,4.964c0,3.064 -0.618,5.012 -2.304,5.012Zm0,-10.926c-3.682,0 -6.105,2.637 -6.105,6.081c0,3.61 2.233,5.796 6.105,5.796c3.752,0 6.105,-2.684 6.105,-6.128c0,-3.611 -2.376,-5.748 -6.105,-5.748Z" style="fill:#fff;fill-rule:nonzero;"/><path d="M69.762,18.076l-2.043,-0.451c-1.116,-0.237 -1.876,-0.475 -1.876,-1.378c0,-1.14 1.188,-1.449 1.995,-1.449c2.589,-0.047 3.729,1.52 4.323,2.304l0.095,0l0,-2.518c-0.618,-0.333 -1.853,-0.737 -3.99,-0.737c-3.254,0 -4.988,1.615 -4.988,3.705c0,2.494 1.52,3.254 3.42,3.706l0.808,0.19c0.95,0.214 2.304,0.356 2.304,1.568c0,0.926 -0.523,1.805 -2.09,1.805c-0.618,0 -2.969,-0.19 -4.204,-2.589l-0.119,0l0,2.565c0.831,0.57 2.637,0.974 4.157,0.974c3.183,0 5.344,-1.71 5.344,-4.252c0,-1.9 -1.283,-3.041 -3.135,-3.444Z" style="fill:#fff;fill-rule:nonzero;"/></g></svg>