<?xml version="1.0" encoding="UTF-8" standalone="no"?><!DOCTYPE svg PUBLIC "-//W3C//DTD SVG 1.1//EN" "http://www.w3.org/Graphics/SVG/1.1/DTD/svg11.dtd"><svg width="100%" height="100%" viewBox="0 0 139 40" version="1.1" xmlns="http://www.w3.org/2000/svg" xmlns:xlink="http://www.w3.org/1999/xlink" xml:space="preserve" xmlns:serif="http://www.serif.com/" style="fill-rule:evenodd;clip-rule:evenodd;stroke-linejoin:round;stroke-miterlimit:2;"><path d="M59.515,28.943c-0.714,-5.915 -1.581,-11.811 -2.603,-17.688l-0.372,-2.141l-4.469,0l-0.371,2.141c-1.023,5.874 -1.891,11.77 -2.605,17.688l-0.247,2.057l3.601,0l0.254,-2.057c0.037,-0.303 0.079,-0.605 0.117,-0.91l2.985,0c0.037,0.303 0.079,0.605 0.117,0.91l0.247,2.057l3.601,0l-0.254,-2.057Zm-6.25,-4.477c0.028,-0.198 0.068,-0.448 0.11,-0.7c0.205,-1.222 0.602,-8.988 0.602,-8.988l0.655,0c0,0 0.404,7.747 0.602,8.978c0.045,0.261 0.084,0.511 0.11,0.7l-2.078,0.009Zm-3.826,-11.784l-2.433,0l0,18.318l-3.615,0l0,-18.318l-2.439,0l0,-3.568l8.486,0l0,3.568Zm-13.082,0l0,5.61l3.321,0l0,3.55l-3.314,0l0,5.597l4.198,0l0,3.554l-7.817,0l0,-21.879l6.936,0l0,3.568l-3.323,0Zm-4.874,14.752l0,3.566l-8.286,0c0,-7.133 3.481,-12.805 4.081,-18.32l-4.081,0l0,-3.566l8.286,0c0,7.134 -3.652,12.805 -4.249,18.32l4.249,0Zm-9.505,1.509c-0.714,-5.915 -1.581,-11.811 -2.603,-17.688l-0.373,-2.145l-4.468,0l-0.373,2.145c-1.022,5.874 -1.888,11.77 -2.6,17.688l-0.25,2.057l3.6,0l0.247,-2.057c0.035,-0.303 0.077,-0.605 0.114,-0.91l2.988,0c0.037,0.303 0.079,0.605 0.117,0.91l0.247,2.057l3.601,0l-0.247,-2.057Zm-6.247,-4.477c0.026,-0.198 0.065,-0.448 0.11,-0.7c0.205,-1.241 0.602,-8.997 0.602,-8.997l0.653,0c0,0 0.397,7.755 0.602,8.988c0.045,0.261 0.084,0.511 0.11,0.7l-2.076,0.009Zm-5.677,-6.175l0,12.709l-2.255,0l-1.206,-1.866l-1.208,1.866l-0.214,0c-4.82,0 -5.17,-3.321 -5.17,-10.935c0,-7.745 0.35,-11.065 5.175,-11.065c1.329,0 4.053,0.114 4.62,3.101c0.06,0.317 0.119,0.725 0.173,1.194l-3.437,1.103c-0.012,-0.312 -0.023,-0.543 -0.04,-0.66c-0.089,-0.7 -0.256,-1.229 -1.388,-1.229c-1.131,0 -1.302,0.541 -1.4,1.231c-0.135,1.04 -0.135,11.427 0,12.478c0.089,0.7 0.256,1.229 1.399,1.229c1.143,0 1.299,-0.541 1.388,-1.229c0.055,-0.408 0.086,-2.239 0.098,-4.384l-1.178,0l0,-3.545l4.643,0Zm73.198,-9.291c-4.825,0 -5.175,3.321 -5.175,11.065c0,7.614 0.35,10.935 5.175,10.935c4.825,0 5.17,-3.321 5.17,-10.935c-0.002,-7.745 -0.35,-11.065 -5.17,-11.065Zm1.399,17.219c-0.091,0.7 -0.259,1.229 -1.399,1.229c-1.14,0 -1.301,-0.541 -1.399,-1.229c-0.135,-1.045 -0.135,-11.44 0,-12.478c0.089,-0.7 0.256,-1.229 1.399,-1.229c1.143,0 1.299,0.538 1.399,1.229c0.119,1.04 0.119,11.436 -0.014,12.478l0.014,0Zm-13.01,-17.105l-4.881,0l0,21.886l4.881,0c4.825,0 5.17,-3.3 5.17,-10.879c0.002,-7.704 -0.345,-11.007 -5.17,-11.007Zm1.399,17.128c-0.089,0.686 -0.259,1.224 -1.399,1.224l-1.471,0l0,-14.859l1.471,0c1.131,0 1.301,0.536 1.399,1.222c0.124,1.036 0.124,11.378 -0.009,12.413l0.009,0Zm54.911,-17.128l-0.247,2.059c-0.718,5.919 -1.586,11.816 -2.603,17.693l-0.371,2.133l-4.151,0l-0.371,-2.131c-1.023,-5.875 -1.891,-11.774 -2.603,-17.697l-0.247,-2.057l3.585,0l0.247,2.057c0.093,0.77 0.284,2.215 0.446,3.426c0.183,1.382 0.326,2.768 0.429,4.158l0.399,5.382l0.378,0l0.397,-5.382c0.103,-1.39 0.246,-2.775 0.431,-4.156c0.161,-1.21 0.352,-2.656 0.443,-3.428l0.25,-2.057l3.588,0Zm5.658,-0.114c-4.825,0 -5.17,3.321 -5.17,11.065c0,7.614 0.348,10.935 5.17,10.935c4.822,0 5.175,-3.321 5.175,-10.935c-0.001,-7.745 -0.349,-11.065 -5.175,-11.065Zm1.399,17.219c-0.089,0.7 -0.256,1.229 -1.399,1.229c-1.143,0 -1.301,-0.541 -1.399,-1.229c-0.133,-1.045 -0.133,-11.44 0,-12.478c0.089,-0.7 0.259,-1.229 1.399,-1.229c1.14,0 1.301,0.538 1.399,1.229c0.126,1.04 0.126,11.436 -0.009,12.478l0.009,0Zm-23.303,-17.219c-4.825,0 -5.17,3.321 -5.17,11.065c0,7.614 0.348,10.935 5.17,10.935c4.822,0 5.175,-3.321 5.175,-10.935c-0.005,-7.745 -0.355,-11.065 -5.175,-11.065Zm1.399,17.219c-0.089,0.7 -0.256,1.229 -1.399,1.229c-1.143,0 -1.299,-0.541 -1.399,-1.229c-0.133,-1.045 -0.133,-11.44 0,-12.478c0.091,-0.7 0.259,-1.229 1.399,-1.229c1.14,0 1.301,0.538 1.399,1.229c0.121,1.04 0.121,11.436 -0.003,12.478l0.003,0Zm-12.976,-17.105l-4.608,0l0,21.886l3.407,0l0,-6.191l1.201,0c4.825,0 5.17,-3.318 5.17,-7.801c0.002,-4.687 -0.345,-7.894 -5.171,-7.894Zm1.401,11.243c-0.086,0.401 -0.254,1.003 -1.339,1.003l-1.262,0l0,-8.68l1.262,0c1.085,0 1.245,0.611 1.332,1.012c0.128,2.22 0.128,4.445 0,6.665l0.007,0Z" style="fill:#fff;fill-rule:nonzero;"/></svg>