<?xml version="1.0" encoding="UTF-8" standalone="no"?><!DOCTYPE svg PUBLIC "-//W3C//DTD SVG 1.1//EN" "http://www.w3.org/Graphics/SVG/1.1/DTD/svg11.dtd"><svg width="100%" height="100%" viewBox="0 0 92 40" version="1.1" xmlns="http://www.w3.org/2000/svg" xmlns:xlink="http://www.w3.org/1999/xlink" xml:space="preserve" xmlns:serif="http://www.serif.com/" style="fill-rule:evenodd;clip-rule:evenodd;stroke-linejoin:round;stroke-miterlimit:2;"><path d="M32.301,10.544c0.842,0 1.531,0.952 1.531,2.144l-3.115,0.374c0.085,-1.633 0.601,-2.518 1.582,-2.518l0.001,0Zm27.756,0c0.842,0 1.531,0.952 1.531,2.144l-3.115,0.374c0.085,-1.633 0.601,-2.518 1.584,-2.518Zm24.022,10.701l7.916,0l0,-1.463l-7.916,0l0,1.463Zm-14.642,-9.885c0.19,-0.068 0.412,-0.119 0.861,-0.119c1.72,0 2.892,1.123 2.892,3.624c0,2.075 -1.152,3.488 -2.823,3.488c-0.276,0 -0.603,-0.052 -0.93,-0.152l0,-6.841Zm-25.692,1.02l2.151,0l0,-2.739c-0.412,-0.17 -0.689,-0.239 -1.084,-0.239c-0.67,0 -1.479,0.442 -2.324,1.107l-0.619,0.477l0,-1.584l-0.447,0l-4.25,0.851l0,0.646l1.429,0.426l0,6.686l-1.429,0.51l0,0.578l6.299,0l0,-0.578l-1.602,-0.51l0,-6.277c0.413,-0.152 1.136,-0.272 1.308,-0.272l0.568,0.917l0,0.001Zm8.002,-2.978c-2.702,0 -5.662,1.668 -5.662,5.393c0,3.097 2.082,4.559 4.336,4.559c0.776,0 1.67,-0.103 2.977,-0.646l1.584,-0.664l-0.223,-0.613c-0.396,0.152 -0.946,0.255 -1.72,0.255c-2.135,0 -3.751,-1.259 -3.751,-4.101c0,-1.974 1.152,-3.046 2.203,-3.046c0.104,0 0.224,0.017 0.327,0.068l0.946,1.768l1.978,0l0,-2.411c-0.794,-0.29 -1.878,-0.563 -2.995,-0.563l0,0.001Zm29.29,-1.514l-0.795,0l-3.734,2.127l0,0.716l1.257,0.119l0,6.738c0,1.21 0.963,1.771 2.324,1.771c0.637,0 1.824,-0.205 2.616,-0.442l1.378,-0.426l-0.121,-0.629c-0.223,0.052 -0.619,0.068 -0.842,0.068c-1.257,0 -2.082,-0.459 -2.082,-1.991l0,-4.985l2.943,0.152l0,-1.446l-2.943,0l0,-1.771Zm-56.58,0l-0.795,0l-3.734,2.127l0,0.716l1.257,0.119l0,6.738c0,1.21 0.963,1.771 2.324,1.771c0.636,0 1.824,-0.205 2.616,-0.442l1.378,-0.426l-0.121,-0.629c-0.224,0.052 -0.619,0.068 -0.842,0.068c-1.257,0 -2.082,-0.459 -2.082,-1.991l0,-4.985l2.943,0.152l0,-1.446l-2.943,0l0,-1.771Zm12.508,5.888l0,-0.273c0,-1.464 -0.998,-4.101 -4.353,-4.101c-2.547,0 -5.111,1.668 -5.111,5.393c0,3.046 2.254,4.559 4.716,4.559c0.723,0 1.773,-0.119 2.995,-0.646l1.531,-0.664l-0.223,-0.613c-0.396,0.152 -0.946,0.255 -1.756,0.255c-1.893,0 -3.975,-1.089 -4.061,-3.914l6.262,0l0,0.003l0.001,0.001Zm27.758,0l0,-0.273c0,-1.464 -0.998,-4.101 -4.353,-4.101c-2.547,0 -5.111,1.668 -5.111,5.393c0,3.046 2.254,4.559 4.716,4.559c0.722,0 1.773,-0.119 2.994,-0.646l1.531,-0.664l-0.224,-0.613c-0.395,0.152 -0.946,0.255 -1.756,0.255c-1.893,0 -3.975,-1.089 -4.061,-3.914l6.265,0l0,0.004Zm-63.052,-6.482l-0,10.514l-1.669,0.629l-0,0.663l7.347,0l0,-0.663l-1.669,-0.629l0,-10.514l1.669,-0.631l0,-0.663l-7.347,0l-0,0.663l1.669,0.631Zm17.141,10.719l-0,-5.275c0,-1.957 -0.74,-3.334 -2.736,-3.334c-0.825,0 -1.446,0.255 -2.254,0.613l-1.463,0.629l0,-1.242l-0.447,0l-4.25,0.851l0,0.646l1.429,0.426l0,6.686l-1.429,0.51l0,0.578l5.954,0l0,-0.578l-1.257,-0.51l0,-6.637c0.31,-0.084 0.842,-0.136 1.24,-0.136c1.067,0 1.945,0.578 1.945,2.314l0,4.459l-1.257,0.51l0,0.578l5.954,0l0,-0.578l-1.429,-0.51Zm50.626,-8.611l-0.447,0l-4.25,0.851l0,0.646l1.429,0.426l0,10.429l-1.429,0.511l0,0.578l6.47,0l0,-0.578l-1.773,-0.511l0,-2.398l0.67,0c4.027,0 6.281,-2.417 6.281,-5.767c0,-2.875 -2.03,-4.185 -3.545,-4.185c-0.603,0 -1.651,0.357 -2.616,0.833l-0.653,0.323l-0.138,0l0,-1.158l0.001,0Z" style="fill:#fff;fill-rule:nonzero;"/><path d="M12.502,23.563c0,-1.671 -1.501,-2.95 -5.035,-2.95l-7.467,0l0,0.664l1.672,0.631l0,10.535l-1.672,0.633l0,0.664l7.105,0c4,0 5.88,-1.466 5.88,-3.819c0,-2.013 -1.501,-3.051 -3.672,-3.41c1.845,-0.288 3.19,-1.09 3.19,-2.948Zm10.89,3.445l1.983,0l0.879,-1.636c0.104,-0.052 0.328,-0.103 0.603,-0.103c0.949,0 1.31,0.409 1.31,1.533l0,1.585l-1.862,0.29c-2.518,0.409 -3.639,1.262 -3.639,2.864c0,1.381 1,2.455 2.586,2.455c0.723,0 1.792,-0.29 2.915,-1.279l0.172,0c0.156,0.921 0.638,1.279 1.328,1.279c0.501,0 1.173,-0.155 1.966,-0.477l1.121,-0.46l0,-0.495l-1.31,-0.512l0,-5.729c0,-1.159 -0.551,-2.303 -3.414,-2.303c-0.983,0 -3.224,0.477 -4.639,1.073l0,1.915Zm29.279,-6.697l-0.449,0l-3.915,0.853l0,0.647l1.085,0.767l0,10.073l-1.085,0.512l0,0.58l5.45,0l0,-0.58l-1.085,-0.512l0,-12.341Zm-11.76,10.38c0,-2.967 -4.551,-2.95 -4.551,-4.74c0,-0.512 0.379,-0.834 1.085,-0.834c0.172,0 0.413,0.035 0.517,0.084l0.879,1.501l1.707,0l0,-2.148c-0.413,-0.17 -1.983,-0.529 -3.156,-0.529c-2.104,0 -3.828,1.057 -3.828,3.12c0,2.967 4.551,2.95 4.551,4.74c0,0.699 -0.501,1.024 -1.189,1.024c-0.258,0 -0.603,-0.068 -0.759,-0.17l-0.879,-1.585l-1.707,0l0,2.148c0.723,0.325 2.224,0.699 3.294,0.699c2.139,-0.002 4.035,-1.076 4.035,-3.309l0.001,0Zm-20.667,-3.682l2.156,0l0,-2.744c-0.413,-0.17 -0.69,-0.239 -1.085,-0.239c-0.672,0 -1.483,0.444 -2.328,1.108l-0.622,0.495l0,-1.604l-0.449,0l-4.258,0.853l0,0.647l1.43,0.426l0,6.7l-1.43,0.512l0,0.58l6.311,0l0,-0.58l-1.603,-0.512l0,-6.291c0.413,-0.136 1.138,-0.273 1.31,-0.273l0.57,0.921l-0.002,0.001Zm26.124,-2.985l-0.449,0l-3.915,0.853l0,0.647l1.085,0.767l0,6.358l-1.085,0.512l0,0.58l5.45,0l0,-0.58l-1.085,-0.512l0,-8.626Zm-40.678,8.457l-0,-5.012l0.501,0c2.121,0 2.672,1.092 2.672,2.574c0,1.705 -0.915,2.438 -2.534,2.438l-0.638,0Zm0,-10.605l0.672,0c1.43,0 2.121,0.682 2.121,2.335c0,1.381 -0.672,2.165 -1.775,2.165l-1.017,0l0,-4.5l-0.001,0Zm37.177,-0.1c0,1.024 0.517,1.449 1.862,1.449c1.345,0 1.879,-0.426 1.879,-1.449c0,-1.024 -0.534,-1.466 -1.879,-1.466c-1.345,0 -1.862,0.442 -1.862,1.466Zm-15.355,10.277c-1.017,0 -1.792,-0.342 -1.792,-1.331c0,-0.615 0.345,-1.04 1.277,-1.194l1.173,-0.187l0,2.625c-0.122,0.053 -0.503,0.086 -0.656,0.086l-0.001,0Z" style="fill:#fff;fill-rule:nonzero;"/></svg>