<?xml version="1.0" encoding="UTF-8" standalone="no"?><!DOCTYPE svg PUBLIC "-//W3C//DTD SVG 1.1//EN" "http://www.w3.org/Graphics/SVG/1.1/DTD/svg11.dtd"><svg width="100%" height="100%" viewBox="0 0 139 40" version="1.1" xmlns="http://www.w3.org/2000/svg" xmlns:xlink="http://www.w3.org/1999/xlink" xml:space="preserve" xmlns:serif="http://www.serif.com/" style="fill-rule:evenodd;clip-rule:evenodd;stroke-linejoin:round;stroke-miterlimit:2;"><g id="b"><g id="c"><g><path d="M28.756,7.5l-7.442,0c-1.297,0 -2.489,0.466 -3.402,1.25c-0.855,0.72 -1.964,1.074 -3.085,1.074l-7.915,0c-3.816,0 -6.912,3.09 -6.912,6.906l0,8.858c0,3.816 3.09,6.912 6.912,6.912l21.85,0c2.914,0 5.272,-2.359 5.272,-5.272l0,-14.443c0,-2.914 -2.359,-5.272 -5.272,-5.272l-0.006,-0.011l-0,-0.001Zm-12.521,19.119c0,0.577 -0.477,1.037 -1.067,1.037l-0.224,0c-0.59,0 -1.067,-0.466 -1.067,-1.037l0,-8.97c0,-0.577 -0.477,-1.037 -1.067,-1.037c-0.59,0 -1.067,0.466 -1.067,1.037l0,8.97c0,0.577 -0.477,1.037 -1.067,1.037l-0.224,0c-0.59,0 -1.067,-0.466 -1.067,-1.037l0,-8.97c0,-0.577 -0.477,-1.037 -1.067,-1.037l-0.112,0c-0.59,0 -1.067,0.466 -1.067,1.037l0,8.97c0,0.577 -0.477,1.037 -1.067,1.037l-0.224,0c-0.59,0 -1.067,-0.466 -1.067,-1.037l0,-11.264c0,-0.577 0.477,-1.037 1.067,-1.037l7.112,0c0.59,0 1.067,0.466 1.067,1.037l0,0.206c0,0.577 0.477,1.037 1.067,1.037l0.076,0c0.59,0 1.067,0.466 1.067,1.037l0,8.983Zm12.879,0c0,0.577 -0.477,1.037 -1.067,1.037l-0.224,0c-0.59,0 -1.067,-0.466 -1.067,-1.037l0,-8.97c0,-0.577 -0.477,-1.037 -1.067,-1.037c-0.59,0 -1.067,0.466 -1.067,1.037l0,8.97c0,0.577 -0.477,1.037 -1.067,1.037l-0.224,0c-0.59,0 -1.067,-0.466 -1.067,-1.037l0,-8.97c0,-0.577 -0.477,-1.037 -1.067,-1.037l-0.112,0c-0.59,0 -1.067,0.466 -1.067,1.037l0,8.97c0,0.577 -0.477,1.037 -1.067,1.037l-0.224,0c-0.59,0 -1.067,-0.466 -1.067,-1.037l0,-11.264c0,-0.577 0.477,-1.037 1.067,-1.037l7.112,0c0.59,0 1.067,0.466 1.067,1.037l0,0.206c0,0.577 0.477,1.037 1.067,1.037l0.076,0c0.59,0 1.067,0.466 1.067,1.037l-0,8.983Z" style="fill:#fff;fill-rule:nonzero;"/><g><path d="M46,22.945c-0.212,0.625 -0.389,1.144 -0.512,1.539c-0.112,-0.36 -0.265,-0.826 -0.454,-1.397l-2.76,-8.256l-2.482,0l0,11.766l1.681,0l0,-9.312l3.161,9.312l1.527,0l3.179,-9.158l0,9.158l1.681,0l0,-11.766l-2.235,0l-2.79,8.115l0.006,0l-0.002,0Z" style="fill:#fff;fill-rule:nonzero;"/><path d="M60.183,25.475c-0.059,-0.342 -0.089,-1.18 -0.089,-2.489l0,-1.894c0,-0.642 -0.024,-1.079 -0.076,-1.332c-0.089,-0.407 -0.241,-0.742 -0.466,-1.009c-0.224,-0.265 -0.566,-0.49 -1.032,-0.666c-0.454,-0.171 -1.056,-0.26 -1.775,-0.26c-0.72,0 -1.38,0.1 -1.935,0.301c-0.566,0.206 -1.002,0.495 -1.304,0.879c-0.295,0.377 -0.512,0.879 -0.642,1.48l-0.024,0.106l1.592,0.219l0.024,-0.089c0.147,-0.566 0.371,-0.961 0.666,-1.185c0.295,-0.224 0.779,-0.33 1.421,-0.33c0.684,0 1.202,0.154 1.551,0.454c0.241,0.212 0.366,0.601 0.366,1.144l0,0.295c-0.536,0.177 -1.356,0.33 -2.441,0.46c-0.566,0.065 -0.991,0.141 -1.28,0.219c-0.389,0.106 -0.742,0.271 -1.05,0.477c-0.312,0.212 -0.572,0.501 -0.766,0.849c-0.195,0.347 -0.295,0.749 -0.295,1.174c0,0.725 0.26,1.332 0.779,1.799c0.512,0.466 1.25,0.701 2.187,0.701c0.566,0 1.109,-0.094 1.604,-0.282c0.449,-0.171 0.92,-0.454 1.404,-0.844c0.047,0.33 0.141,0.619 0.271,0.879l0.03,0.059l1.722,0l-0.089,-0.154c-0.171,-0.306 -0.289,-0.637 -0.347,-0.972l-0.006,0.011l0,0.001Zm-1.734,-3.021l0,0.367c0,0.607 -0.076,1.067 -0.219,1.374c-0.189,0.395 -0.49,0.707 -0.896,0.937c-0.407,0.23 -0.879,0.347 -1.404,0.347c-0.525,0 -0.92,-0.117 -1.191,-0.347c-0.271,-0.23 -0.395,-0.519 -0.395,-0.867c0,-0.224 0.065,-0.436 0.177,-0.619c0.124,-0.182 0.295,-0.324 0.512,-0.419c0.23,-0.1 0.637,-0.195 1.209,-0.277c0.944,-0.136 1.681,-0.295 2.2,-0.49l0.006,-0.006Z" style="fill:#fff;fill-rule:nonzero;"/><path d="M67.549,23.41c-0.094,0.679 -0.324,1.191 -0.679,1.516c-0.347,0.319 -0.796,0.484 -1.327,0.484c-0.666,0 -1.191,-0.236 -1.604,-0.725c-0.412,-0.49 -0.619,-1.291 -0.619,-2.382c0,-1.091 0.219,-1.875 0.642,-2.365c0.425,-0.49 0.985,-0.737 1.664,-0.737c0.449,0 0.831,0.136 1.144,0.401c0.312,0.265 0.536,0.679 0.666,1.215l0.024,0.094l1.58,-0.241l-0.024,-0.106c-0.165,-0.867 -0.555,-1.551 -1.15,-2.017c-0.596,-0.466 -1.369,-0.714 -2.294,-0.714c-0.737,0 -1.421,0.177 -2.046,0.519c-0.631,0.347 -1.109,0.879 -1.415,1.575c-0.306,0.69 -0.46,1.504 -0.46,2.417c0,1.421 0.36,2.524 1.074,3.291c0.714,0.766 1.669,1.156 2.842,1.156c0.937,0 1.734,-0.282 2.382,-0.844c0.642,-0.56 1.05,-1.339 1.202,-2.317l0.017,-0.106l-1.604,-0.206l-0.011,0.1l-0.006,-0.006Z" style="fill:#fff;fill-rule:nonzero;"/><path d="M76.507,22.945c-0.212,0.619 -0.384,1.139 -0.512,1.539c-0.112,-0.354 -0.265,-0.814 -0.454,-1.397l-2.76,-8.256l-2.482,0l0,11.766l1.681,0l0,-9.312l3.161,9.312l1.527,0l3.179,-9.158l0,9.158l1.681,0l0,-11.766l-2.235,0l-2.79,8.115l0.006,0l-0.002,0Z" style="fill:#fff;fill-rule:nonzero;"/><path d="M90.69,25.475c-0.059,-0.342 -0.089,-1.18 -0.089,-2.489l0,-1.894c0,-0.642 -0.024,-1.079 -0.076,-1.332c-0.089,-0.407 -0.241,-0.742 -0.466,-1.009c-0.224,-0.265 -0.566,-0.49 -1.032,-0.666c-0.454,-0.171 -1.056,-0.26 -1.775,-0.26c-0.72,0 -1.38,0.1 -1.935,0.301c-0.566,0.206 -1.002,0.495 -1.304,0.879c-0.295,0.377 -0.512,0.879 -0.642,1.48l-0.024,0.106l1.592,0.219l0.024,-0.089c0.147,-0.566 0.371,-0.961 0.666,-1.185c0.301,-0.224 0.779,-0.33 1.421,-0.33c0.684,0 1.202,0.154 1.551,0.454c0.241,0.212 0.366,0.601 0.366,1.144l0,0.295c-0.536,0.177 -1.356,0.33 -2.441,0.46c-0.566,0.071 -0.991,0.141 -1.28,0.219c-0.389,0.106 -0.742,0.271 -1.05,0.477c-0.319,0.212 -0.572,0.501 -0.766,0.849c-0.195,0.354 -0.295,0.749 -0.295,1.174c0,0.725 0.26,1.332 0.779,1.799c0.512,0.466 1.25,0.701 2.187,0.701c0.566,0 1.109,-0.094 1.604,-0.282c0.449,-0.171 0.92,-0.449 1.404,-0.844c0.047,0.33 0.141,0.619 0.271,0.879l0.03,0.059l1.722,0l-0.089,-0.154c-0.171,-0.306 -0.289,-0.637 -0.347,-0.972l-0.006,0.011l0,0.001Zm-1.734,-3.021l0,0.367c0,0.607 -0.076,1.067 -0.219,1.374c-0.189,0.395 -0.49,0.707 -0.896,0.937c-0.407,0.23 -0.879,0.347 -1.404,0.347c-0.525,0 -0.92,-0.117 -1.191,-0.347c-0.271,-0.23 -0.395,-0.519 -0.395,-0.867c0,-0.224 0.065,-0.436 0.177,-0.619c0.124,-0.182 0.295,-0.324 0.512,-0.419c0.23,-0.1 0.637,-0.195 1.209,-0.277c0.944,-0.136 1.681,-0.295 2.2,-0.49l0.006,-0.006Z" style="fill:#fff;fill-rule:nonzero;"/><path d="M98.121,18.852c-0.631,-0.679 -1.415,-1.02 -2.341,-1.02c-0.761,0 -1.427,0.195 -1.994,0.566c-0.566,0.377 -1.002,0.92 -1.291,1.61c-0.295,0.684 -0.442,1.445 -0.442,2.252c0,1.18 0.324,2.206 0.967,3.049c0.649,0.855 1.575,1.286 2.754,1.286c0.861,0 1.604,-0.312 2.217,-0.931c0,0.761 -0.035,1.28 -0.1,1.527c-0.124,0.449 -0.347,0.802 -0.684,1.05c-0.336,0.247 -0.831,0.377 -1.462,0.377c-0.584,0 -1.05,-0.124 -1.38,-0.377c-0.236,-0.177 -0.389,-0.466 -0.436,-0.861l0,-0.076l-1.58,-0.236l0,0.117c-0.024,0.937 0.289,1.651 0.931,2.117c0.631,0.46 1.462,0.69 2.482,0.69c0.855,0 1.586,-0.165 2.176,-0.49c0.59,-0.324 1.032,-0.772 1.304,-1.332c0.271,-0.555 0.407,-1.504 0.407,-2.819l0,-7.336l-1.521,0l0,0.837l-0.006,0l-0.001,-0.001Zm-2.211,6.363c-0.631,0 -1.144,-0.236 -1.562,-0.72c-0.419,-0.484 -0.631,-1.267 -0.631,-2.335c0,-0.979 0.212,-1.722 0.637,-2.217c0.419,-0.484 0.937,-0.731 1.534,-0.731c0.596,0 1.132,0.247 1.562,0.742c0.436,0.501 0.655,1.256 0.655,2.247c0,0.991 -0.212,1.81 -0.637,2.289c-0.419,0.477 -0.944,0.72 -1.562,0.72l0.006,0.006l-0.001,-0.001Z" style="fill:#fff;fill-rule:nonzero;"/><path d="M108.647,25.475c-0.059,-0.342 -0.089,-1.18 -0.089,-2.489l0,-1.894c0,-0.642 -0.024,-1.079 -0.076,-1.332c-0.089,-0.407 -0.241,-0.742 -0.466,-1.009c-0.224,-0.265 -0.566,-0.49 -1.032,-0.666c-0.454,-0.171 -1.056,-0.26 -1.775,-0.26c-0.72,0 -1.38,0.1 -1.935,0.301c-0.566,0.206 -1.002,0.495 -1.304,0.879c-0.295,0.377 -0.512,0.879 -0.642,1.48l-0.024,0.106l1.592,0.219l0.024,-0.089c0.147,-0.566 0.371,-0.961 0.666,-1.185c0.301,-0.224 0.779,-0.33 1.421,-0.33c0.684,0 1.202,0.154 1.551,0.454c0.241,0.212 0.366,0.601 0.366,1.144l0,0.295c-0.536,0.177 -1.356,0.33 -2.441,0.46c-0.566,0.071 -0.991,0.141 -1.28,0.219c-0.389,0.106 -0.742,0.271 -1.05,0.477c-0.319,0.212 -0.572,0.501 -0.766,0.849c-0.195,0.354 -0.295,0.749 -0.295,1.174c0,0.725 0.26,1.332 0.779,1.799c0.512,0.466 1.25,0.701 2.187,0.701c0.566,0 1.109,-0.094 1.604,-0.282c0.449,-0.171 0.92,-0.449 1.404,-0.844c0.047,0.33 0.141,0.619 0.271,0.879l0.03,0.059l1.722,0l-0.089,-0.154c-0.171,-0.306 -0.289,-0.637 -0.347,-0.972l-0.006,0.011l0,0.001Zm-1.734,-3.021l0,0.367c0,0.607 -0.076,1.067 -0.219,1.374c-0.189,0.395 -0.49,0.707 -0.896,0.937c-0.407,0.23 -0.879,0.347 -1.404,0.347c-0.525,0 -0.92,-0.117 -1.191,-0.347c-0.271,-0.23 -0.395,-0.519 -0.395,-0.867c0,-0.224 0.065,-0.436 0.177,-0.619c0.124,-0.182 0.295,-0.324 0.512,-0.419c0.23,-0.1 0.637,-0.195 1.209,-0.277c0.944,-0.136 1.681,-0.295 2.2,-0.49l0.006,-0.006Z" style="fill:#fff;fill-rule:nonzero;"/><path d="M111.909,25.228l0.707,-0.779l4.529,-5.313l0.024,-0.03l0,-1.079l-7.053,0l0,1.362l3.521,0c0.395,0 0.855,-0.011 1.362,-0.035l-5.172,5.932l-0.024,0.03l0,1.291l7.62,0l0,-1.432l-3.975,0c-0.477,0 -0.996,0.017 -1.539,0.052Z" style="fill:#fff;fill-rule:nonzero;"/><rect x="118.638" y="14.836" width="1.627" height="1.84" style="fill:#fff;"/><rect x="118.638" y="18.021" width="1.627" height="8.587" style="fill:#fff;"/><path d="M128.687,18.858c-0.224,-0.306 -0.555,-0.56 -0.991,-0.749c-0.436,-0.189 -0.914,-0.277 -1.432,-0.277c-1.079,0 -1.935,0.395 -2.56,1.161l0,-0.979l-1.486,0l0,8.587l1.627,0l0,-4.676c0,-1.032 0.206,-1.746 0.619,-2.105c0.419,-0.366 0.92,-0.549 1.497,-0.549c0.36,0 0.672,0.076 0.937,0.241c0.26,0.159 0.442,0.371 0.542,0.637c0.106,0.277 0.159,0.696 0.159,1.262l0,5.201l1.627,0l0,-5.255c0,-0.672 -0.024,-1.132 -0.076,-1.404c-0.089,-0.419 -0.241,-0.785 -0.46,-1.091l-0.006,-0.006l0.002,0Z" style="fill:#fff;fill-rule:nonzero;"/><path d="M137.557,19.006c-0.725,-0.779 -1.675,-1.18 -2.819,-1.18c-1.144,0 -2.159,0.407 -2.901,1.202c-0.742,0.79 -1.115,1.922 -1.115,3.35c0,1.427 0.371,2.477 1.109,3.25c0.737,0.772 1.74,1.161 2.99,1.161c0.991,0 1.822,-0.247 2.459,-0.731c0.642,-0.484 1.085,-1.18 1.321,-2.046l0.035,-0.117l-1.669,-0.206l-0.03,0.076c-0.206,0.577 -0.49,1.002 -0.837,1.262c-0.347,0.26 -0.779,0.389 -1.267,0.389c-0.666,0 -1.232,-0.236 -1.675,-0.701c-0.43,-0.449 -0.679,-1.097 -0.742,-1.935l6.233,0l0,-0.1c0.006,-0.171 0.011,-0.295 0.011,-0.377c0,-1.404 -0.366,-2.506 -1.091,-3.291l-0.011,-0.006l-0,0.001Zm-5.072,2.389c0.065,-0.649 0.295,-1.18 0.696,-1.575c0.419,-0.412 0.95,-0.625 1.569,-0.625c0.69,0 1.245,0.254 1.675,0.785c0.265,0.312 0.43,0.79 0.501,1.415l-4.446,0l0.006,0l-0.001,0Z" style="fill:#fff;fill-rule:nonzero;"/></g></g></g></g></svg>