<?xml version="1.0" encoding="UTF-8" standalone="no"?><!DOCTYPE svg PUBLIC "-//W3C//DTD SVG 1.1//EN" "http://www.w3.org/Graphics/SVG/1.1/DTD/svg11.dtd"><svg width="100%" height="100%" viewBox="0 0 99 40" version="1.1" xmlns="http://www.w3.org/2000/svg" xmlns:xlink="http://www.w3.org/1999/xlink" xml:space="preserve" xmlns:serif="http://www.serif.com/" style="fill-rule:evenodd;clip-rule:evenodd;stroke-linejoin:round;stroke-miterlimit:2;"><g><g><path d="M9.999,30c-1.978,0 -3.912,-0.587 -5.556,-1.686c-1.644,-1.099 -2.926,-2.66 -3.683,-4.488c-0.757,-1.827 -0.955,-3.838 -0.569,-5.778c0.385,-1.94 1.338,-3.722 2.737,-5.12c1.399,-1.399 3.181,-2.351 5.12,-2.737c1.94,-0.385 3.95,-0.188 5.778,0.569c1.827,0.757 3.389,2.039 4.488,3.683c1.098,1.645 1.684,3.578 1.684,5.556c-0.003,2.651 -1.057,5.193 -2.932,7.068c-1.875,1.875 -4.416,2.929 -7.068,2.932Zm0,-18.931c-1.767,0 -3.495,0.524 -4.964,1.506c-1.469,0.981 -2.615,2.377 -3.291,4.01c-0.676,1.633 -0.853,3.429 -0.508,5.162c0.345,1.734 1.196,3.325 2.446,4.575c1.25,1.249 2.842,2.1 4.575,2.444c1.734,0.344 3.53,0.167 5.162,-0.51c1.632,-0.677 3.028,-1.822 4.009,-3.293c0.981,-1.47 1.504,-3.197 1.504,-4.964c-0.003,-2.368 -0.945,-4.639 -2.62,-6.313c-1.675,-1.674 -3.945,-2.615 -6.314,-2.617Z" style="fill:#fff;fill-rule:nonzero;"/><path d="M9.999,25.208c-1.504,0 -2.973,-0.446 -4.224,-1.281c-1.25,-0.835 -2.225,-2.023 -2.8,-3.412c-0.575,-1.389 -0.726,-2.918 -0.433,-4.393c0.293,-1.475 1.018,-2.829 2.081,-3.892c1.063,-1.063 2.418,-1.787 3.892,-2.081c1.475,-0.293 3.003,-0.143 4.393,0.433c1.389,0.575 2.576,1.55 3.412,2.8c0.835,1.25 1.281,2.72 1.281,4.224c-0.002,2.015 -0.803,3.948 -2.228,5.373c-1.425,1.425 -3.358,2.227 -5.373,2.229Zm0,-14.139c-1.293,0 -2.556,0.383 -3.632,1.101c-1.075,0.719 -1.912,1.74 -2.407,2.934c-0.495,1.194 -0.624,2.508 -0.372,3.777c0.252,1.268 0.875,2.432 1.789,3.347c0.914,0.914 2.079,1.536 3.347,1.789c1.268,0.252 2.582,0.123 3.777,-0.372c1.195,-0.495 2.215,-1.333 2.933,-2.407c0.718,-1.075 1.101,-2.339 1.101,-3.632c-0.002,-1.733 -0.692,-3.394 -1.917,-4.62c-1.225,-1.225 -2.886,-1.915 -4.619,-1.917Z" style="fill:#fff;fill-rule:nonzero;"/><path d="M7.527,22.736c-1.015,0 -2.007,-0.3 -2.851,-0.863c-0.844,-0.564 -1.502,-1.364 -1.891,-2.302c-0.389,-0.937 -0.49,-1.969 -0.293,-2.964c0.197,-0.995 0.685,-1.91 1.403,-2.627c0.717,-0.718 1.631,-1.206 2.627,-1.405c0.995,-0.198 2.026,-0.097 2.964,0.291c0.938,0.388 1.739,1.046 2.303,1.889c0.564,0.844 0.865,1.836 0.865,2.85c-0.002,1.359 -0.543,2.662 -1.504,3.624c-0.961,0.961 -2.263,1.503 -3.623,1.506Zm0,-9.191c-0.804,-0.001 -1.59,0.237 -2.259,0.683c-0.669,0.447 -1.19,1.081 -1.498,1.824c-0.308,0.743 -0.389,1.56 -0.232,2.349c0.157,0.789 0.544,1.513 1.112,2.082c0.568,0.568 1.293,0.955 2.082,1.113c0.789,0.156 1.606,0.076 2.349,-0.232c0.743,-0.308 1.377,-0.83 1.824,-1.499c0.446,-0.669 0.684,-1.455 0.683,-2.259c-0.004,-1.074 -0.434,-2.104 -1.195,-2.862c-0.761,-0.759 -1.791,-1.185 -2.866,-1.188l0,-0.011l-0.001,0Z" style="fill:#fff;fill-rule:nonzero;"/><path d="M7.463,22.792c-0.632,0 -1.25,-0.188 -1.776,-0.539c-0.526,-0.352 -0.936,-0.851 -1.178,-1.435c-0.242,-0.584 -0.305,-1.227 -0.182,-1.847c0.123,-0.62 0.428,-1.19 0.875,-1.637c0.447,-0.447 1.017,-0.752 1.637,-0.875c0.62,-0.123 1.263,-0.06 1.847,0.182c0.584,0.242 1.084,0.652 1.435,1.178c0.351,0.526 0.539,1.144 0.539,1.776c0,0.848 -0.337,1.661 -0.936,2.261c-0.599,0.6 -1.413,0.936 -2.261,0.936Zm0,-5.328c-0.422,0 -0.834,0.125 -1.184,0.359c-0.35,0.234 -0.624,0.567 -0.785,0.956c-0.162,0.389 -0.204,0.818 -0.122,1.231c0.082,0.414 0.286,0.793 0.583,1.091c0.298,0.298 0.678,0.501 1.091,0.584c0.413,0.083 0.842,0.04 1.231,-0.122c0.389,-0.161 0.722,-0.434 0.956,-0.785c0.234,-0.35 0.359,-0.763 0.359,-1.184c0.001,-0.281 -0.053,-0.558 -0.161,-0.818c-0.107,-0.259 -0.264,-0.495 -0.462,-0.694c-0.198,-0.198 -0.433,-0.357 -0.693,-0.464c-0.259,-0.108 -0.537,-0.163 -0.817,-0.163l0,0.007l0.001,0Z" style="fill:#fff;fill-rule:nonzero;"/><path d="M8.76,21.503c-0.379,0 -0.75,-0.112 -1.066,-0.323c-0.315,-0.211 -0.561,-0.51 -0.707,-0.861c-0.145,-0.35 -0.183,-0.737 -0.109,-1.109c0.074,-0.372 0.257,-0.714 0.525,-0.982c0.268,-0.268 0.61,-0.451 0.982,-0.525c0.372,-0.074 0.758,-0.036 1.109,0.109c0.35,0.146 0.65,0.391 0.861,0.707c0.211,0.315 0.323,0.687 0.323,1.066c-0.001,0.509 -0.203,0.995 -0.563,1.355c-0.359,0.36 -0.847,0.562 -1.355,0.563Zm0,-2.771c-0.169,0 -0.334,0.05 -0.474,0.144c-0.14,0.094 -0.249,0.227 -0.314,0.383c-0.064,0.156 -0.082,0.327 -0.048,0.493c0.033,0.166 0.114,0.317 0.233,0.437c0.119,0.119 0.271,0.201 0.437,0.233c0.166,0.033 0.337,0.016 0.493,-0.049c0.156,-0.064 0.289,-0.174 0.383,-0.314c0.093,-0.14 0.143,-0.305 0.143,-0.474c0,-0.226 -0.09,-0.443 -0.249,-0.603c-0.161,-0.16 -0.377,-0.25 -0.603,-0.25Z" style="fill:#fff;fill-rule:nonzero;"/><path d="M26.891,18.959l0,5.357c0,0.266 0.06,0.572 -0.302,0.679c-0.498,0.146 -1.065,0.043 -1.236,-0.249c-0.059,-0.108 -0.088,-0.231 -0.085,-0.355l0,-8.828c-0.008,-0.09 0.015,-0.18 0.066,-0.255c0.051,-0.075 0.126,-0.131 0.212,-0.157c0.127,-0.06 0.264,-0.094 0.405,-0.101c0.14,-0.007 0.28,0.014 0.412,0.062c0.132,0.048 0.253,0.121 0.357,0.216c0.104,0.094 0.188,0.208 0.247,0.335c0.355,0.593 0.749,1.162 1.115,1.748c0.427,0.682 0.842,1.368 1.261,2.057c0.234,0.387 0.458,0.782 0.71,1.169c0.036,0.059 0.131,0.142 0.171,0.127c0.04,-0.014 0.077,-0.038 0.107,-0.068c0.031,-0.031 0.054,-0.066 0.07,-0.106c0.027,-0.098 0.037,-0.201 0.028,-0.302l0,-4.721c-0.008,-0.051 -0.007,-0.103 0.006,-0.152c0.012,-0.05 0.034,-0.097 0.066,-0.138c0.031,-0.041 0.069,-0.075 0.114,-0.101c0.044,-0.026 0.094,-0.042 0.145,-0.047c0.157,-0.032 0.316,-0.05 0.476,-0.053c0.75,0 0.832,0.071 0.832,0.799l0,8.38c0,0.284 0,0.568 -0.305,0.71c-0.151,0.085 -0.324,0.123 -0.498,0.108c-0.173,-0.014 -0.338,-0.081 -0.473,-0.19c-0.274,-0.281 -0.512,-0.593 -0.71,-0.931c-0.788,-1.261 -1.563,-2.533 -2.341,-3.805c-0.206,-0.355 -0.402,-0.679 -0.604,-1.016c-0.136,-0.121 -0.242,-0.419 -0.246,-0.174Z" style="fill:#fff;fill-rule:nonzero;"/><path d="M35.794,21.222c0,-1.197 0,-2.398 0.092,-3.588c0.041,-0.437 0.184,-0.857 0.418,-1.227c0.234,-0.37 0.552,-0.68 0.929,-0.904c0.593,-0.438 1.32,-0.658 2.057,-0.622c0.461,0.033 0.91,0.159 1.321,0.37c0.412,0.211 0.776,0.502 1.073,0.856c0.552,0.708 0.833,1.59 0.792,2.487c0.043,1.961 0.021,3.925 0.024,5.887c0.007,0.069 -0.001,0.139 -0.022,0.205c-0.022,0.066 -0.056,0.128 -0.102,0.18c-0.046,0.052 -0.102,0.094 -0.165,0.124c-0.063,0.03 -0.131,0.046 -0.201,0.048c-0.251,0.025 -0.502,0.032 -0.753,0.021c-0.149,-0.017 -0.286,-0.092 -0.38,-0.209c-0.094,-0.117 -0.139,-0.267 -0.124,-0.417l0,-2.053c0,-0.593 -0.071,-0.66 -0.675,-0.664l-2.096,0c-0.437,0 -0.504,0.071 -0.508,0.501l0,2.156c0,0.483 -0.199,0.682 -0.685,0.685l-0.309,0c-0.537,0 -0.71,-0.196 -0.71,-0.735l0,-3.084l0.026,-0.018Zm2.135,-1.233l2.387,0c0.291,0 0.448,-0.135 0.437,-0.44c-0.011,-0.305 0,-0.664 0,-0.991c-0.085,-0.71 -0.178,-1.379 -0.927,-1.776c-0.161,-0.096 -0.338,-0.159 -0.523,-0.187c-0.185,-0.027 -0.373,-0.018 -0.554,0.028c-0.181,0.046 -0.352,0.126 -0.502,0.238c-0.15,0.112 -0.277,0.252 -0.372,0.412c-0.433,0.71 -0.355,1.51 -0.391,2.295c0,0.309 0.149,0.43 0.444,0.423Z" style="fill:#fff;fill-rule:nonzero;"/><path d="M81.942,18.757l0,-3.116c0,-0.387 0.103,-0.501 0.49,-0.558l0.067,0c1.109,-0.089 1.169,-0.028 1.172,1.065c0,1.822 0,3.648 0.025,5.475c-0.001,0.303 0.072,0.602 0.211,0.871c0.139,0.269 0.34,0.502 0.589,0.678c0.176,0.127 0.379,0.214 0.594,0.253c0.214,0.038 0.434,0.028 0.644,-0.03c0.211,-0.058 0.404,-0.164 0.568,-0.307c0.164,-0.144 0.293,-0.323 0.378,-0.523c0.167,-0.361 0.256,-0.753 0.263,-1.151c0.025,-1.95 0,-3.908 0,-5.851c-0.006,-0.059 0,-0.12 0.018,-0.177c0.017,-0.057 0.047,-0.11 0.086,-0.156c0.039,-0.046 0.088,-0.082 0.142,-0.108c0.054,-0.026 0.113,-0.041 0.174,-0.042l0.035,0c1.236,-0.096 1.329,0 1.329,1.201c0,1.776 0.029,3.553 0,5.304c0.006,0.564 -0.118,1.122 -0.362,1.631c-0.243,0.509 -0.599,0.956 -1.041,1.308c-1.094,0.881 -3.197,0.888 -4.263,-0.284c-0.681,-0.712 -1.063,-1.658 -1.066,-2.643c-0.064,-0.935 -0.053,-1.894 -0.053,-2.839Z" style="fill:#fff;fill-rule:nonzero;"/><path d="M52.656,18.753l0,2.977c-0.027,0.645 -0.197,1.278 -0.494,1.851c-0.71,1.485 -2.458,1.776 -3.794,1.464c-0.61,-0.169 -1.149,-0.53 -1.538,-1.03c-0.732,-0.832 -0.817,-1.851 -0.835,-2.874c-0.028,-1.688 0,-3.375 0,-5.062l0,-0.444c-0.015,-0.067 -0.014,-0.136 0.001,-0.202c0.016,-0.067 0.046,-0.129 0.089,-0.182c0.043,-0.053 0.098,-0.096 0.16,-0.124c0.062,-0.029 0.129,-0.043 0.198,-0.042l0.103,0c1.115,-0.039 1.176,0.018 1.176,1.111l0,4.416c0.009,0.557 0.058,1.112 0.146,1.662c0.048,0.226 0.148,0.438 0.292,0.618c0.144,0.18 0.329,0.324 0.539,0.42c0.21,0.096 0.439,0.141 0.67,0.132c0.231,-0.009 0.457,-0.072 0.658,-0.183c0.287,-0.17 0.524,-0.412 0.688,-0.702c0.164,-0.29 0.249,-0.617 0.246,-0.95c0.029,-1.975 0,-3.946 0,-5.918c0,-0.515 0.068,-0.59 0.593,-0.604l0.685,0c0.32,0 0.437,0.167 0.437,0.479l0,3.197l-0.021,-0.01Z" style="fill:#fff;fill-rule:nonzero;"/><path d="M95.15,14.849c1.194,0 1.918,0.444 2.696,1.105l0.05,0.05c0.113,0.142 -0.078,0.984 -0.292,1.147c-0.105,0.073 -0.232,0.11 -0.36,0.105c-0.128,-0.005 -0.251,-0.052 -0.35,-0.133c-0.59,-0.393 -1.288,-0.592 -1.996,-0.568c-0.257,0.028 -0.503,0.114 -0.721,0.252c-0.219,0.138 -0.402,0.324 -0.537,0.544c-0.043,0.116 -0.059,0.239 -0.049,0.362c0.011,0.123 0.05,0.242 0.113,0.348c0.283,0.42 0.7,0.732 1.183,0.885c0.785,0.323 1.609,0.565 2.295,1.065c0.456,0.259 0.81,0.667 1.002,1.155c0.186,0.535 0.186,1.117 0,1.652c-0.111,0.296 -0.244,0.584 -0.398,0.86c-0.299,0.5 -0.753,0.889 -1.293,1.108c-0.853,0.381 -1.806,0.474 -2.718,0.267c-0.573,-0.117 -1.109,-0.373 -1.559,-0.747c-0.133,-0.092 -0.229,-0.23 -0.269,-0.387c-0.04,-0.157 -0.021,-0.324 0.052,-0.469c0.103,-0.238 0.135,-0.59 0.309,-0.679c0.174,-0.088 0.454,0.146 0.693,0.227c0.629,0.213 1.246,0.533 1.925,0.415c0.425,-0.071 0.832,-0.221 1.201,-0.444c0.465,-0.288 0.355,-1.233 -0.196,-1.556c-0.52,-0.288 -1.059,-0.539 -1.613,-0.753c-0.959,-0.398 -1.925,-0.796 -2.337,-1.844c-0.133,-0.368 -0.201,-0.756 -0.202,-1.147c0.003,-0.444 0.125,-0.879 0.353,-1.26c0.228,-0.381 0.554,-0.694 0.944,-0.907c0.609,-0.424 1.333,-0.652 2.075,-0.654Z" style="fill:#fff;fill-rule:nonzero;"/><path d="M69.054,19.997l0,2.636c0,0.511 0.146,0.647 0.654,0.633c0.913,-0.033 0.955,0 0.955,0.916l0,0.309c-0.028,0.394 -0.192,0.547 -0.586,0.547l-3.854,0c-0.387,0 -0.487,-0.086 -0.508,-0.476l0,-0.889c-0.011,-0.058 -0.007,-0.118 0.011,-0.174c0.018,-0.057 0.05,-0.107 0.093,-0.148c0.043,-0.042 0.095,-0.071 0.152,-0.086c0.057,-0.016 0.116,-0.017 0.174,-0.003l0.621,0c0.074,-0.002 0.147,-0.018 0.214,-0.049c0.067,-0.031 0.127,-0.075 0.177,-0.13c0.049,-0.055 0.087,-0.119 0.109,-0.189c0.024,-0.07 0.033,-0.144 0.026,-0.218l0,-5.403c0.002,-0.066 -0.011,-0.131 -0.035,-0.191c-0.024,-0.06 -0.063,-0.114 -0.111,-0.159c-0.048,-0.044 -0.104,-0.079 -0.166,-0.1c-0.062,-0.021 -0.127,-0.029 -0.193,-0.023c-0.206,-0.007 -0.412,-0.001 -0.618,0.018c-0.054,0.013 -0.109,0.014 -0.162,0.002c-0.054,-0.012 -0.104,-0.036 -0.147,-0.071c-0.042,-0.034 -0.077,-0.078 -0.1,-0.128c-0.023,-0.049 -0.034,-0.104 -0.032,-0.159c-0.02,-0.355 -0.02,-0.71 0,-1.065c0.001,-0.047 0.012,-0.093 0.031,-0.134c0.019,-0.042 0.048,-0.079 0.083,-0.11c0.035,-0.031 0.077,-0.053 0.122,-0.066c0.044,-0.013 0.091,-0.016 0.137,-0.01l4.128,0c0.058,-0.003 0.116,0.005 0.169,0.026c0.055,0.02 0.104,0.052 0.146,0.092c0.041,0.041 0.073,0.089 0.094,0.143c0.021,0.054 0.031,0.112 0.028,0.169l0,0.238c0.026,1.048 -0.113,1.144 -1.065,1.044c-0.38,-0.036 -0.54,0.135 -0.54,0.529l0,2.672l-0.008,0.007Z" style="fill:#fff;fill-rule:nonzero;"/><path d="M59.964,20.877l0,3.492c0,0.529 -0.132,0.66 -0.668,0.668l-0.377,0c-0.082,0.004 -0.165,-0.011 -0.242,-0.041c-0.077,-0.031 -0.146,-0.077 -0.204,-0.137c-0.057,-0.059 -0.102,-0.13 -0.129,-0.208c-0.028,-0.078 -0.039,-0.161 -0.033,-0.243l0,-7.013c0.039,-0.427 -0.124,-0.593 -0.565,-0.586l-1.616,0c-0.475,0 -0.668,-0.185 -0.682,-0.654l0,-0.476c0,-0.458 0.121,-0.586 0.583,-0.608l6.152,0c0.562,0 0.71,0.146 0.71,0.71l0,0.448c0.002,0.081 -0.013,0.16 -0.044,0.234c-0.031,0.074 -0.077,0.141 -0.134,0.197c-0.058,0.056 -0.127,0.098 -0.202,0.126c-0.077,0.027 -0.156,0.038 -0.237,0.033l-1.648,0c-0.55,0 -0.682,0.096 -0.679,0.654l0,3.417l0.016,-0.014Z" style="fill:#fff;fill-rule:nonzero;"/><path d="M74.738,20.015l0,-4.327c0,-0.412 0.125,-0.551 0.533,-0.59l0.042,0c1.084,-0.074 1.155,0 1.155,1.066l0,6.462c0,0.515 0.163,0.675 0.675,0.675l1.581,0c0.38,0 0.544,0.167 0.544,0.544c0,1.229 0.046,1.254 -1.211,1.233l-2.647,0c-0.088,0.011 -0.178,0.002 -0.263,-0.026c-0.084,-0.029 -0.161,-0.076 -0.224,-0.139c-0.063,-0.063 -0.112,-0.139 -0.141,-0.223c-0.029,-0.084 -0.039,-0.174 -0.029,-0.263c-0.017,-1.496 -0.014,-2.952 -0.014,-4.412Z" style="fill:#fff;fill-rule:nonzero;"/></g></g></svg>