<?xml version="1.0" encoding="UTF-8" standalone="no"?><!DOCTYPE svg PUBLIC "-//W3C//DTD SVG 1.1//EN" "http://www.w3.org/Graphics/SVG/1.1/DTD/svg11.dtd"><svg width="100%" height="100%" viewBox="0 0 161 40" version="1.1" xmlns="http://www.w3.org/2000/svg" xmlns:xlink="http://www.w3.org/1999/xlink" xml:space="preserve" xmlns:serif="http://www.serif.com/" style="fill-rule:evenodd;clip-rule:evenodd;stroke-linejoin:round;stroke-miterlimit:2;"><g><g><path d="M50.666,9.04c-0.023,0.017 -0.04,0.661 -0.04,1.425c0,0.849 -0.023,1.437 -0.057,1.505c-0.057,0.097 -0.125,0.108 -0.804,0.108c-0.41,0 -0.792,0.029 -0.855,0.057c-0.103,0.057 -0.108,0.137 -0.108,1.511c0,1.237 0.011,1.459 0.091,1.534c0.068,0.074 0.234,0.091 0.849,0.091c0.547,0 0.775,0.023 0.81,0.068c0.023,0.04 0.057,1.653 0.074,3.58c0.034,3.443 0.034,3.512 0.165,3.934c0.462,1.522 1.465,2.269 3.386,2.508c0.901,0.114 2.771,0.04 3.067,-0.12c0.103,-0.051 0.108,-0.143 0.108,-1.505c0,-0.969 -0.023,-1.459 -0.063,-1.482c-0.034,-0.023 -0.348,-0.046 -0.696,-0.051c-0.507,-0.006 -0.69,-0.034 -0.895,-0.125c-0.302,-0.137 -0.536,-0.393 -0.639,-0.696c-0.097,-0.296 -0.137,-5.912 -0.04,-6.032c0.051,-0.063 0.279,-0.08 1.112,-0.08c0.872,0 1.055,-0.017 1.129,-0.091c0.08,-0.074 0.091,-0.296 0.091,-1.534c0,-1.374 -0.006,-1.454 -0.108,-1.511c-0.068,-0.034 -0.542,-0.057 -1.14,-0.057c-0.758,0 -1.038,-0.017 -1.072,-0.074c-0.023,-0.034 -0.057,-0.724 -0.074,-1.522l-0.029,-1.454l-2.115,-0.017c-1.163,-0.006 -2.127,0.006 -2.149,0.029Z" style="fill:#fff;fill-rule:nonzero;"/><path d="M139.974,9.068c-0.051,0.051 -0.068,0.456 -0.068,1.477c0,1.055 -0.017,1.42 -0.074,1.465c-0.034,0.034 -0.422,0.068 -0.855,0.08c-0.621,0.011 -0.798,0.034 -0.838,0.103c-0.034,0.046 -0.057,0.718 -0.057,1.522c0,1.363 0.006,1.442 0.108,1.499c0.063,0.029 0.445,0.057 0.855,0.057c0.53,0 0.753,0.023 0.787,0.068c0.023,0.04 0.057,1.653 0.074,3.58c0.034,3.426 0.034,3.518 0.16,3.928c0.194,0.633 0.405,1.021 0.764,1.408c0.525,0.559 1.317,0.918 2.383,1.078c0.958,0.148 3.124,0.086 3.341,-0.091c0.108,-0.091 0.114,-2.856 0.011,-2.947c-0.04,-0.029 -0.371,-0.068 -0.73,-0.08c-0.525,-0.023 -0.701,-0.051 -0.889,-0.148c-0.285,-0.148 -0.507,-0.399 -0.604,-0.684c-0.091,-0.285 -0.137,-5.827 -0.046,-5.998c0.057,-0.108 0.114,-0.114 1.089,-0.114c0.599,0 1.072,-0.023 1.14,-0.057c0.103,-0.057 0.108,-0.137 0.108,-1.539c0,-1.402 -0.006,-1.482 -0.108,-1.539c-0.068,-0.034 -0.542,-0.057 -1.14,-0.057c-0.958,0 -1.032,-0.006 -1.089,-0.108c-0.034,-0.068 -0.057,-0.644 -0.057,-1.471c0,-0.986 -0.017,-1.38 -0.068,-1.431c-0.051,-0.051 -0.593,-0.068 -2.098,-0.068c-1.505,0 -2.047,0.017 -2.098,0.068Z" style="fill:#fff;fill-rule:nonzero;"/><path d="M5.73,12.141c-3.597,0.428 -5.73,2.896 -5.73,6.636c0,3.495 1.802,5.827 5.017,6.476c0.792,0.165 2.189,0.2 3.05,0.086c1.619,-0.211 2.822,-0.764 3.797,-1.739c0.832,-0.832 1.294,-1.705 1.602,-3.027c0.143,-0.627 0.205,-2.286 0.108,-2.97c-0.416,-2.947 -2.263,-4.863 -5.177,-5.388c-0.616,-0.108 -2.052,-0.148 -2.668,-0.074Zm1.984,3.324c0.661,0.319 1.192,1.117 1.385,2.081c0.12,0.61 0.086,2.189 -0.057,2.714c-0.239,0.861 -0.69,1.494 -1.283,1.779c-0.291,0.143 -0.376,0.16 -0.946,0.16c-0.582,0 -0.65,-0.011 -0.958,-0.165c-0.644,-0.331 -1.123,-1.049 -1.323,-2.001c-0.131,-0.61 -0.131,-1.95 -0.006,-2.537c0.239,-1.1 0.878,-1.921 1.67,-2.144c0.428,-0.125 1.146,-0.068 1.516,0.114Z" style="fill:#fff;fill-rule:nonzero;"/><path d="M25.296,12.141c-1.095,0.12 -2.235,0.502 -2.987,1.003c-0.935,0.616 -1.688,1.625 -1.933,2.583c-0.097,0.393 -0.068,0.559 0.108,0.599c0.068,0.017 0.935,0.023 1.921,0.017l1.796,-0.017l0.154,-0.308c0.308,-0.604 0.724,-0.884 1.448,-0.975c1.009,-0.131 1.75,0.16 2.081,0.804c0.165,0.331 0.228,1.186 0.091,1.294c-0.063,0.051 -0.627,0.108 -1.762,0.188c-1.876,0.12 -2.286,0.171 -3.079,0.371c-1.112,0.274 -1.819,0.644 -2.474,1.3c-0.707,0.707 -0.992,1.414 -0.992,2.463c0,1.06 0.353,1.916 1.112,2.68c0.77,0.77 1.773,1.192 3.027,1.26c1.032,0.057 1.927,-0.137 2.697,-0.57c0.382,-0.211 1.083,-0.872 1.3,-1.214c0.086,-0.137 0.177,-0.251 0.205,-0.251c0.023,0 0.04,0.433 0.04,0.958c0,0.667 0.023,0.981 0.068,1.026c0.108,0.108 4.111,0.097 4.202,-0.011c0.051,-0.057 0.063,-1.306 0.051,-4.857l-0.017,-4.783l-0.131,-0.371c-0.587,-1.631 -2.064,-2.737 -4.145,-3.107c-0.633,-0.108 -2.109,-0.154 -2.782,-0.08Zm2.702,7.754c0.103,0.2 0.04,1.112 -0.103,1.431c-0.262,0.576 -0.884,1.038 -1.602,1.192c-0.462,0.097 -1.231,0.04 -1.579,-0.114c-0.553,-0.245 -0.77,-0.564 -0.77,-1.135c0,-0.473 0.171,-0.781 0.564,-1.021c0.388,-0.234 0.65,-0.285 1.944,-0.382c1.511,-0.108 1.465,-0.114 1.545,0.029Z" style="fill:#fff;fill-rule:nonzero;"/><path d="M34.526,12.17c-0.08,0.08 -0.091,0.753 -0.091,6.556c0,4.356 0.017,6.511 0.057,6.585c0.057,0.103 0.143,0.108 2.098,0.108c1.18,0 2.07,-0.023 2.121,-0.057c0.074,-0.046 0.091,-0.593 0.114,-4.173l0.029,-4.122l0.211,-0.439c0.239,-0.507 0.547,-0.832 1.003,-1.055c0.302,-0.148 0.376,-0.16 1.009,-0.16c0.633,0 0.707,0.011 0.981,0.16c0.553,0.285 0.912,0.804 1.038,1.488c0.04,0.228 0.063,1.67 0.063,4.282c0,2.987 0.017,3.957 0.068,4.008c0.051,0.051 0.599,0.068 2.104,0.068l2.041,0l0.086,-0.125c0.08,-0.114 0.091,-0.604 0.091,-4.179c0,-2.303 -0.023,-4.316 -0.057,-4.675c-0.177,-1.893 -0.969,-3.221 -2.309,-3.877c-0.684,-0.331 -1.288,-0.45 -2.28,-0.45c-0.764,0.006 -0.912,0.023 -1.368,0.16c-0.696,0.211 -1.106,0.445 -1.602,0.906c-0.382,0.359 -0.815,0.952 -1.003,1.38c-0.063,0.148 -0.074,0.017 -0.091,-1.049c-0.011,-1.038 -0.029,-1.243 -0.108,-1.328c-0.086,-0.097 -0.234,-0.103 -2.104,-0.103c-1.75,0 -2.024,0.011 -2.098,0.091Z" style="fill:#fff;fill-rule:nonzero;"/><path d="M64.508,12.119c-0.513,0.04 -1.397,0.205 -1.824,0.342c-0.969,0.302 -1.967,0.941 -2.514,1.602c-0.559,0.678 -1.066,1.898 -0.901,2.166c0.057,0.086 0.245,0.097 1.95,0.114l1.887,0.011l0.211,-0.405c0.251,-0.473 0.507,-0.69 0.986,-0.832c0.439,-0.125 1.26,-0.12 1.653,0.011c0.388,0.125 0.804,0.525 0.906,0.861c0.08,0.285 0.091,1.14 0.011,1.192c-0.034,0.017 -0.821,0.086 -1.756,0.148c-2.423,0.154 -3.398,0.342 -4.401,0.849c-1.454,0.73 -2.132,1.796 -2.127,3.335c0,0.519 0.029,0.707 0.148,1.083c0.479,1.465 1.688,2.451 3.358,2.742c0.69,0.12 1.722,0.08 2.326,-0.091c0.901,-0.257 1.767,-0.861 2.258,-1.568l0.222,-0.331l0.029,0.941c0.023,0.678 0.051,0.969 0.108,1.038c0.068,0.08 0.291,0.091 2.115,0.091c1.67,0 2.052,-0.017 2.104,-0.08c0.051,-0.057 0.063,-1.294 0.051,-4.8l-0.017,-4.726l-0.154,-0.456c-0.621,-1.813 -2.315,-2.953 -4.789,-3.221c-0.519,-0.051 -1.317,-0.063 -1.841,-0.017Zm2.332,7.691c0.074,0.029 0.091,0.143 0.091,0.644c0,0.57 -0.011,0.639 -0.171,0.963c-0.371,0.735 -1.157,1.152 -2.166,1.152c-1.015,0 -1.665,-0.416 -1.745,-1.123c-0.051,-0.41 0.057,-0.73 0.348,-1.015c0.359,-0.359 0.753,-0.462 2.138,-0.564c1.425,-0.097 1.402,-0.097 1.505,-0.057Z" style="fill:#fff;fill-rule:nonzero;"/><path d="M77.41,12.136c-0.547,0.08 -1.38,0.359 -1.807,0.61c-1.374,0.81 -2.349,2.503 -2.577,4.481c-0.097,0.849 -0.04,2.742 0.114,3.603c0.262,1.465 0.696,2.372 1.545,3.221c0.616,0.621 1.1,0.912 1.967,1.174c0.479,0.148 0.587,0.16 1.539,0.16c1.095,0.006 1.363,-0.04 2.092,-0.331c0.77,-0.314 1.448,-0.867 1.819,-1.477c0.103,-0.182 0.217,-0.325 0.239,-0.325c0.029,0 0.04,0.73 0.029,1.636c-0.034,1.893 -0.051,1.995 -0.507,2.491c-0.353,0.388 -0.77,0.576 -1.431,0.661c-0.775,0.097 -1.568,-0.017 -2.121,-0.296c-0.12,-0.063 -0.342,-0.222 -0.485,-0.359c-0.148,-0.137 -0.336,-0.279 -0.428,-0.308c-0.177,-0.068 -3.318,-0.08 -3.74,-0.017l-0.257,0.04l0.006,0.296c0.011,0.382 0.308,1.003 0.724,1.505c1.163,1.402 3.535,2.201 6.226,2.087c3.438,-0.148 5.775,-1.653 6.266,-4.042c0.08,-0.388 0.091,-1.277 0.091,-7.594c0,-7.018 0,-7.155 -0.108,-7.218c-0.074,-0.034 -0.832,-0.057 -2.07,-0.057c-1.602,0 -1.984,0.017 -2.075,0.08c-0.103,0.074 -0.108,0.171 -0.125,1.283c-0.011,0.661 -0.034,1.203 -0.057,1.203c-0.023,0 -0.125,-0.16 -0.222,-0.359c-0.53,-1.015 -1.522,-1.79 -2.64,-2.064c-0.456,-0.108 -1.499,-0.154 -2.007,-0.086Zm3.443,3.432c0.627,0.291 1.146,0.992 1.391,1.876c0.137,0.49 0.143,2.098 0.006,2.748c-0.308,1.471 -1.22,2.263 -2.526,2.195c-0.604,-0.034 -1.072,-0.251 -1.499,-0.701c-0.593,-0.621 -0.821,-1.459 -0.821,-2.965c0,-0.684 0.023,-0.941 0.12,-1.294c0.274,-1.003 0.792,-1.648 1.562,-1.933c0.456,-0.165 1.323,-0.131 1.767,0.074Z" style="fill:#fff;fill-rule:nonzero;"/><path d="M94.308,12.147c-1.174,0.103 -2.429,0.53 -3.324,1.135c-0.462,0.308 -1.157,1.003 -1.459,1.448c-0.867,1.283 -1.237,2.902 -1.1,4.743c0.251,3.278 2.178,5.376 5.388,5.861c0.724,0.108 2.121,0.108 2.822,0c2.543,-0.382 4.31,-1.802 5.04,-4.036c0.268,-0.827 0.342,-1.351 0.342,-2.491c0.006,-1.163 -0.051,-1.608 -0.319,-2.451c-0.331,-1.038 -0.781,-1.756 -1.556,-2.497c-1.078,-1.026 -2.372,-1.562 -4.145,-1.722c-0.724,-0.063 -0.855,-0.063 -1.688,0.011Zm1.79,3.318c0.616,0.285 1.083,0.918 1.345,1.841c0.114,0.388 0.131,0.576 0.125,1.471c0,1.14 -0.068,1.545 -0.365,2.166c-0.456,0.963 -1.3,1.42 -2.332,1.277c-0.45,-0.063 -0.975,-0.336 -1.231,-0.633c-0.274,-0.325 -0.53,-0.832 -0.667,-1.34c-0.16,-0.593 -0.177,-2.229 -0.029,-2.816c0.274,-1.117 0.872,-1.847 1.693,-2.075c0.433,-0.12 1.066,-0.074 1.459,0.108Z" style="fill:#fff;fill-rule:nonzero;"/><path d="M103.874,12.119c-0.046,0.017 -0.103,0.063 -0.125,0.097c-0.023,0.034 -0.046,2.993 -0.046,6.568c0,5.439 0.011,6.516 0.08,6.573c0.051,0.046 0.667,0.063 2.149,0.051l2.075,-0.017l0.029,-4.048c0.029,-3.962 0.034,-4.053 0.154,-4.413c0.257,-0.753 0.855,-1.345 1.499,-1.482c0.416,-0.091 0.958,-0.08 1.311,0.029c0.667,0.2 1.043,0.587 1.288,1.334c0.097,0.291 0.108,0.633 0.125,4.39c0.011,2.799 0.034,4.093 0.08,4.145c0.091,0.114 4.111,0.108 4.202,-0.006c0.051,-0.057 0.063,-1.266 0.046,-4.743c-0.017,-4.595 -0.017,-4.675 -0.143,-5.137c-0.365,-1.385 -1.106,-2.366 -2.149,-2.868c-1.368,-0.656 -3.221,-0.65 -4.504,0.017c-0.513,0.268 -1.306,1.089 -1.596,1.648c-0.125,0.245 -0.245,0.445 -0.268,0.445c-0.029,0 -0.046,-0.564 -0.046,-1.254c0,-1.18 -0.006,-1.254 -0.108,-1.311c-0.12,-0.063 -3.894,-0.074 -4.053,-0.017Z" style="fill:#fff;fill-rule:nonzero;"/><path d="M118.914,12.141c-0.097,0.051 -0.103,0.428 -0.103,6.596c0,5.017 0.017,6.562 0.068,6.613c0.097,0.097 4.099,0.097 4.196,0c0.051,-0.051 0.068,-1.596 0.068,-6.613c0,-6.408 0,-6.545 -0.108,-6.602c-0.148,-0.08 -3.985,-0.074 -4.122,0.006Z" style="fill:#fff;fill-rule:nonzero;"/><path d="M130.014,12.141c-2.486,0.205 -4.276,1.294 -4.789,2.919c-0.2,0.621 -0.239,1.266 -0.12,1.864c0.154,0.741 0.371,1.146 0.918,1.688c0.388,0.388 0.564,0.513 1.06,0.758c0.77,0.376 1.26,0.513 3.141,0.861c2.007,0.376 2.303,0.479 2.6,0.912c0.291,0.428 0.103,0.941 -0.445,1.209c-0.639,0.319 -1.756,0.342 -2.446,0.046c-0.325,-0.143 -0.656,-0.462 -0.855,-0.838l-0.148,-0.274l-1.99,-0.017c-1.42,-0.011 -2.012,0.006 -2.064,0.051c-0.108,0.091 -0.097,0.319 0.04,0.77c0.502,1.659 1.938,2.742 4.242,3.198c0.416,0.08 0.792,0.103 1.938,0.103c1.254,-0.006 1.494,-0.017 2.007,-0.131c1.488,-0.325 2.497,-0.855 3.284,-1.727c0.587,-0.644 0.895,-1.471 0.895,-2.417c0,-1.596 -0.827,-2.577 -2.685,-3.187c-0.325,-0.108 -1.146,-0.296 -1.819,-0.428c-2.252,-0.433 -2.583,-0.513 -2.942,-0.69c-0.416,-0.205 -0.547,-0.382 -0.576,-0.77c-0.029,-0.342 0.097,-0.582 0.422,-0.792c0.576,-0.382 1.762,-0.422 2.412,-0.091c0.279,0.148 0.599,0.496 0.741,0.804c0.063,0.148 0.154,0.285 0.205,0.302c0.051,0.017 0.889,0.034 1.87,0.034c1.408,0 1.802,-0.017 1.887,-0.08c0.234,-0.171 -0.04,-1.203 -0.513,-1.916c-0.821,-1.237 -2.394,-1.995 -4.498,-2.166c-0.81,-0.063 -0.941,-0.063 -1.773,0.006Z" style="fill:#fff;fill-rule:nonzero;"/><path d="M153.902,12.113c-1.22,0.12 -2.03,0.325 -2.794,0.707c-0.701,0.348 -1.368,0.867 -1.745,1.363c-0.536,0.707 -0.969,1.796 -0.815,2.047c0.057,0.086 0.234,0.097 1.967,0.097l1.904,0l0.148,-0.319c0.325,-0.678 0.741,-0.912 1.682,-0.952c0.764,-0.029 1.14,0.057 1.488,0.359c0.365,0.308 0.473,0.593 0.473,1.214c0,0.325 -0.023,0.53 -0.063,0.559c-0.04,0.023 -0.804,0.086 -1.699,0.143c-2.377,0.154 -3.335,0.331 -4.316,0.787c-1.169,0.547 -1.802,1.243 -2.138,2.343c-0.165,0.536 -0.177,1.385 -0.034,1.938c0.467,1.773 2.007,2.908 4.071,3.004c1.459,0.068 2.537,-0.296 3.449,-1.163c0.182,-0.177 0.41,-0.45 0.513,-0.61l0.188,-0.291l0.029,0.986c0.023,0.792 0.046,0.998 0.114,1.038c0.131,0.086 4.122,0.074 4.207,-0.011c0.051,-0.051 0.068,-1.157 0.068,-4.618c0,-3.939 -0.011,-4.612 -0.091,-4.994c-0.371,-1.802 -1.967,-3.113 -4.27,-3.512c-0.513,-0.091 -1.904,-0.16 -2.337,-0.114Zm2.241,7.714c0.063,0.034 0.074,0.2 0.057,0.696c-0.023,0.758 -0.131,1.043 -0.536,1.42c-0.507,0.467 -1.152,0.661 -2.018,0.616c-0.878,-0.051 -1.363,-0.382 -1.494,-1.021c-0.108,-0.547 0.103,-1.021 0.593,-1.3c0.388,-0.222 0.644,-0.274 1.955,-0.365c1.402,-0.103 1.357,-0.103 1.442,-0.046Z" style="fill:#fff;fill-rule:nonzero;"/><path d="M120.493,26.691c-0.673,0.177 -1.174,0.57 -1.465,1.169c-0.177,0.353 -0.188,0.422 -0.188,0.952c0,0.53 0.011,0.599 0.188,0.952c0.684,1.397 2.531,1.653 3.58,0.49c0.815,-0.906 0.661,-2.469 -0.325,-3.181c-0.502,-0.359 -1.243,-0.519 -1.79,-0.382Z" style="fill:#fff;fill-rule:nonzero;"/></g></g></svg>