<?xml version="1.0" encoding="UTF-8" standalone="no"?><!DOCTYPE svg PUBLIC "-//W3C//DTD SVG 1.1//EN" "http://www.w3.org/Graphics/SVG/1.1/DTD/svg11.dtd"><svg width="100%" height="100%" viewBox="0 0 93 40" version="1.1" xmlns="http://www.w3.org/2000/svg" xmlns:xlink="http://www.w3.org/1999/xlink" xml:space="preserve" xmlns:serif="http://www.serif.com/" style="fill-rule:evenodd;clip-rule:evenodd;stroke-linejoin:round;stroke-miterlimit:2;"><g><g><path d="M2.126,14.629l17.305,0l-2.126,17.305l-17.305,0l2.126,-17.305Zm4.338,4.944l-0.915,7.417l7.417,0l0.914,-7.417l-7.416,0Z" style="fill:#fff;fill-rule:nonzero;"/><path d="M19.947,32l3.498,0l15.401,-13.86l0.4,-3.511l-3.498,0l-9.885,8.897l1.022,-8.897l-4.944,0l-1.994,17.371Z" style="fill:#fff;fill-rule:nonzero;"/><path d="M44.051,31.934l-4.944,0l2.126,-17.305l4.944,0l-2.126,17.305Z" style="fill:#fff;fill-rule:nonzero;"/><path d="M51.85,26.99l12.361,0l-0.606,4.944l-17.305,0l2.126,-17.305l17.305,0l-0.606,4.944l-12.362,0l-0.914,7.417Z" style="fill:#fff;fill-rule:nonzero;"/><path d="M70.798,31.934l-4.944,0l2.126,-17.305l4.945,0l-2.126,17.305Z" style="fill:#fff;fill-rule:nonzero;"/><path d="M75.173,14.629l17.305,0l-2.126,17.305l-17.305,0l2.126,-17.305Zm4.338,4.944l-0.914,7.417l7.414,0l0.914,-7.417l-7.414,0Z" style="fill:#fff;fill-rule:nonzero;"/><path d="M41.436,12.555l4.944,0l2.04,-4.555l-4.944,0l-2.04,4.555Z" style="fill:#fff;fill-rule:nonzero;"/><path d="M68.095,12.555l4.944,0l0.56,-4.555l-4.944,0l-0.56,4.555Z" style="fill:#fff;fill-rule:nonzero;"/></g></g></svg>