<?xml version="1.0" encoding="UTF-8" standalone="no"?><!DOCTYPE svg PUBLIC "-//W3C//DTD SVG 1.1//EN" "http://www.w3.org/Graphics/SVG/1.1/DTD/svg11.dtd"><svg width="100%" height="100%" viewBox="0 0 156 40" version="1.1" xmlns="http://www.w3.org/2000/svg" xmlns:xlink="http://www.w3.org/1999/xlink" xml:space="preserve" xmlns:serif="http://www.serif.com/" style="fill-rule:evenodd;clip-rule:evenodd;stroke-linejoin:round;stroke-miterlimit:2;"><g id="Artboard1"><g><g id="Layer-1" serif:id="Layer 1"><g><path d="M28.781,18.611c1.665,0 2.545,-0.597 2.545,-1.727l0,-0.044c0,-1.069 -0.847,-1.682 -2.324,-1.682l-3.231,0l0,3.453l3.01,0Zm0.906,6.231c1.612,0 2.501,-0.629 2.501,-1.771l0,-0.044c0,-1.159 -0.903,-1.771 -2.611,-1.771l-3.805,0l0,3.586l3.916,0Zm-6.956,2.799c-0.051,0 -0.092,-0.041 -0.092,-0.092l0,-15.099c0,-0.051 0.041,-0.092 0.092,-0.092l6.779,0c3.092,0 5.013,1.497 5.013,3.907l0,0.044c0,1.443 -0.65,2.508 -1.986,3.256l-0.171,0.096l0.183,0.07c1.988,0.761 2.836,1.872 2.836,3.715l0,0.044c0,2.638 -2.077,4.15 -5.698,4.15l-6.956,0Z" style="fill:#fff;fill-rule:nonzero;"/></g><g><path d="M43.454,27.856c-2.355,0 -4.617,-0.829 -6.368,-2.333c-0.038,-0.033 -0.043,-0.09 -0.01,-0.128l1.78,-2.132c0.018,-0.022 0.044,-0.033 0.07,-0.033c0.02,0 0.041,0.007 0.057,0.02c1.519,1.218 2.961,1.785 4.537,1.785c1.434,0 2.324,-0.594 2.324,-1.55l0,-0.044c0,-0.972 -0.685,-1.414 -3.185,-2.055c-3.427,-0.875 -5.058,-1.792 -5.058,-4.639l0,-0.044c0,-2.734 2.139,-4.57 5.323,-4.57c2.104,0 3.973,0.619 5.553,1.84c0.039,0.03 0.047,0.085 0.019,0.125l-1.566,2.271c-0.018,0.026 -0.046,0.04 -0.075,0.04c-0.018,0 -0.036,-0.005 -0.051,-0.016c-1.435,-0.967 -2.718,-1.438 -3.923,-1.438c-1.264,0 -2.081,0.565 -2.081,1.439l0,0.044c0,1.147 0.883,1.475 3.406,2.122c2.986,0.778 4.837,1.811 4.837,4.551l0,0.044c0,2.901 -2.141,4.703 -5.588,4.703" style="fill:#fff;fill-rule:nonzero;"/></g><g><path d="M51.682,27.635c-0.051,0 -0.092,-0.041 -0.092,-0.092l0,-15.1c0,-0.051 0.041,-0.092 0.092,-0.092l10.885,0c0.051,0 0.092,0.041 0.092,0.092l0,2.66c0,0.051 -0.041,0.092 -0.092,0.092l-7.779,0l0,3.321l6.785,0c0.051,0 0.092,0.041 0.092,0.092l0,2.66c0,0.051 -0.041,0.092 -0.092,0.092l-6.785,0l0,3.431l7.89,0c0.051,0 0.092,0.041 0.092,0.092l0,2.66c0,0.051 -0.041,0.092 -0.092,0.092l-10.996,0Z" style="fill:#fff;fill-rule:nonzero;"/></g><g><path d="M72.121,19.864c1.64,0 2.699,-0.895 2.699,-2.279l0,-0.044c0,-1.463 -1.008,-2.301 -2.766,-2.301l-3.473,0l0,4.625l3.539,0Zm2.639,7.771c-0.031,0 -0.059,-0.015 -0.076,-0.041l-3.287,-4.909l-2.815,0l0,4.858c0,0.051 -0.041,0.092 -0.092,0.092l-3.036,0c-0.051,0 -0.092,-0.041 -0.092,-0.092l0,-15.099c0,-0.051 0.041,-0.092 0.092,-0.092l6.888,0c3.596,0 5.742,1.874 5.742,5.012l0,0.044c0,2.894 -1.77,4.158 -3.255,4.709l-0.11,0.041l3.649,5.334c0.019,0.028 0.021,0.065 0.005,0.095c-0.016,0.03 -0.047,0.049 -0.081,0.049l-3.532,0Z" style="fill:#fff;fill-rule:nonzero;"/></g><g><path d="M85.175,27.635c-0.038,0 -0.071,-0.023 -0.085,-0.057l-6.107,-15.1c-0.011,-0.028 -0.008,-0.06 0.009,-0.086c0.017,-0.025 0.046,-0.04 0.076,-0.04l3.358,0c0.038,0 0.073,0.024 0.086,0.06l4.086,10.829l4.086,-10.829c0.013,-0.036 0.047,-0.06 0.086,-0.06l3.27,0c0.03,0 0.059,0.015 0.076,0.04c0.017,0.025 0.021,0.057 0.009,0.086l-6.107,15.1c-0.014,0.035 -0.048,0.057 -0.085,0.057l-2.757,0Z" style="fill:#fff;fill-rule:nonzero;"/></g><g><path d="M101.898,21.345l-2.198,-5.349l-2.198,5.349l4.396,0Zm2.623,6.29c-0.037,0 -0.071,-0.022 -0.085,-0.057l-1.395,-3.412l-6.683,0l-1.395,3.412c-0.014,0.035 -0.048,0.057 -0.085,0.057l-3.077,0c-0.031,0 -0.059,-0.015 -0.077,-0.041c-0.017,-0.026 -0.02,-0.058 -0.008,-0.086l6.497,-15.1c0.014,-0.034 0.048,-0.056 0.085,-0.056l2.903,0c0.037,0 0.07,0.022 0.085,0.056l6.486,15.1c0.012,0.028 0.009,0.061 -0.008,0.086c-0.017,0.026 -0.046,0.041 -0.077,0.041l-3.166,0Z" style="fill:#fff;fill-rule:nonzero;"/></g><g><path d="M115.433,24.747c2.852,0 4.768,-1.893 4.768,-4.71l0,-0.044c0,-2.799 -1.961,-4.754 -4.768,-4.754l-2.729,0l0,9.508l2.729,0Zm-5.866,2.888c-0.051,0 -0.092,-0.041 -0.092,-0.092l0,-15.099c0,-0.051 0.041,-0.092 0.092,-0.092l5.866,0c4.723,0 8.152,3.195 8.152,7.597l0,0.044c0,4.428 -3.428,7.642 -8.152,7.642l-5.866,0Z" style="fill:#fff;fill-rule:nonzero;"/></g><g><path d="M149.706,19.864c1.644,0 2.707,-0.895 2.707,-2.279l0,-0.044c0,-1.463 -1.011,-2.301 -2.773,-2.301l-3.482,0l0,4.625l3.549,0Zm2.647,7.771c-0.031,0 -0.059,-0.015 -0.077,-0.041l-3.297,-4.909l-2.822,0l0,4.858c0,0.051 -0.041,0.092 -0.092,0.092l-3.045,0c-0.051,0 -0.092,-0.041 -0.092,-0.092l0,-15.099c0,-0.051 0.041,-0.092 0.092,-0.092l6.907,0c3.606,0 5.758,1.874 5.758,5.012l0,0.044c0,2.895 -1.775,4.158 -3.264,4.709l-0.111,0.041l3.659,5.334c0.019,0.028 0.021,0.065 0.005,0.095c-0.016,0.03 -0.047,0.049 -0.081,0.049l-3.542,0Z" style="fill:#fff;fill-rule:nonzero;"/></g><g><path d="M133.257,15.239c-2.601,0 -4.717,2.133 -4.717,4.755c0,2.622 2.116,4.755 4.717,4.755c2.601,0 4.717,-2.133 4.717,-4.755c0,-2.622 -2.116,-4.755 -4.717,-4.755m0,12.661c-4.373,0 -7.93,-3.547 -7.93,-7.907c0,-4.36 3.557,-7.907 7.93,-7.907c4.373,0 7.93,3.547 7.93,7.907c0,4.36 -3.557,7.907 -7.93,7.907" style="fill:#fff;fill-rule:nonzero;"/></g><g><path d="M10,26.464c-3.57,0 -6.464,-2.894 -6.464,-6.464c0,-3.57 2.894,-6.465 6.464,-6.465c3.57,0 6.465,2.894 6.465,6.465c0,3.57 -2.894,6.464 -6.465,6.464m0,-16.464c-5.523,0 -10,4.477 -10,10c0,5.523 4.477,10 10,10c5.523,0 10,-4.477 10,-10c0,-5.523 -4.477,-10 -10,-10" style="fill:#fff;fill-rule:nonzero;"/></g></g></g></g></svg>