<?xml version="1.0" encoding="UTF-8" standalone="no"?><!DOCTYPE svg PUBLIC "-//W3C//DTD SVG 1.1//EN" "http://www.w3.org/Graphics/SVG/1.1/DTD/svg11.dtd"><svg width="100%" height="100%" viewBox="0 0 187 40" version="1.1" xmlns="http://www.w3.org/2000/svg" xmlns:xlink="http://www.w3.org/1999/xlink" xml:space="preserve" xmlns:serif="http://www.serif.com/" style="fill-rule:evenodd;clip-rule:evenodd;stroke-linejoin:round;stroke-miterlimit:2;"><g><g><path d="M4.549,10.524c-1.199,0.31 -2.419,0.641 -2.729,0.703l-0.579,0.145l0,8.89l-1.241,0l0,8.373l1.241,0.682l1.22,0.682l3.99,-0.207c2.192,-0.124 4.197,-0.227 4.466,-0.227l0.455,0l0,-8.477l5.582,0l0,-10.71l-1.695,-0.124c-0.951,-0.062 -3.246,-0.165 -5.127,-0.207c-3.246,-0.103 -3.515,-0.083 -5.582,0.476Zm1.861,5.107l0,4.9l-1.592,-0.145c-0.868,-0.062 -1.881,-0.124 -2.274,-0.124l-0.682,0l0,-8.435l2.026,-0.517c1.096,-0.289 2.13,-0.538 2.274,-0.538c0.186,-0.021 0.248,1.075 0.248,4.859Zm-4.259,5.376c0.289,0.103 0.331,0.662 0.331,4.135l0,4.011l-1.861,-0.91l0,-7.36l0.6,0c0.331,0 0.744,0.062 0.93,0.124Z" style="fill:#fff;fill-rule:nonzero;"/><path d="M102.424,11.062c-4.714,1.013 -7.34,4.569 -7.05,9.511c0.124,2.46 0.724,3.928 2.171,5.52c3.68,3.949 11.082,3.99 14.7,0.062c2.419,-2.626 2.957,-7.195 1.241,-10.627c-1.799,-3.577 -6.471,-5.479 -11.061,-4.466Zm4.362,5.127c1.84,1.034 2.46,3.97 1.282,5.975c-1.158,2.005 -4.032,2.398 -5.81,0.827c-1.489,-1.323 -1.53,-4.631 -0.062,-6.223c1.054,-1.137 3.143,-1.406 4.59,-0.579Z" style="fill:#fff;fill-rule:nonzero;"/><path d="M21.916,11.124l0,17.615l5.789,0l0,-5.541l2.233,-0.083c1.737,-0.062 2.44,-0.186 3.287,-0.558c1.22,-0.538 2.419,-1.737 2.895,-2.895c0.414,-0.951 0.455,-3.349 0.083,-4.631c-0.351,-1.241 -1.592,-2.646 -2.853,-3.267c-0.951,-0.476 -1.22,-0.496 -6.203,-0.558l-5.231,-0.083Zm8.27,4.797c0.289,0.289 0.414,0.682 0.414,1.323c0,1.158 -0.496,1.571 -1.902,1.571l-0.992,0l0,-3.308l1.034,0c0.765,0 1.137,0.103 1.447,0.414Z" style="fill:#fff;fill-rule:nonzero;"/><path d="M38.042,11.165l0,17.574l17.76,0l0.227,-0.889c0.124,-0.476 0.269,-1.034 0.331,-1.241c0.103,-0.31 0.414,-0.351 2.646,-0.351l2.543,0l0.331,1.241l0.351,1.241l3.122,0c2.419,0 3.101,-0.062 3.039,-0.248c-0.062,-0.145 -1.427,-4.114 -3.06,-8.808l-2.957,-8.518l-6.471,0l-2.998,8.601l-2.977,8.601l-0.103,-2.15l-0.103,-2.13l-3.039,-0.062l-3.06,-0.062l0,-12.798l-5.582,0Zm21.605,8.146c0.269,0.992 0.558,1.964 0.62,2.192c0.124,0.393 0.041,0.414 -1.22,0.414c-0.744,0 -1.365,-0.021 -1.365,-0.062c0,-0.041 0.124,-0.538 0.289,-1.096c0.165,-0.558 0.455,-1.551 0.641,-2.233c0.186,-0.662 0.372,-1.158 0.434,-1.096c0.062,0.062 0.331,0.91 0.6,1.881Z" style="fill:#fff;fill-rule:nonzero;"/><path d="M66.78,11.165l0,4.342l4.135,0l0,13.232l5.789,0l0,-13.232l4.135,0l0,-4.342l-14.059,0Z" style="fill:#fff;fill-rule:nonzero;"/><path d="M82.08,11.165l0,17.574l5.789,0l0,-5.789l6.203,0l0,-4.549l-6.203,0l0,-2.688l6.616,0l0,-4.549l-12.405,0Z" style="fill:#fff;fill-rule:nonzero;"/><path d="M116.4,11.165l0,17.574l5.789,0l0,-2.895c0,-2.667 0.021,-2.895 0.372,-2.895c0.289,0 0.724,0.724 1.757,2.895l1.365,2.895l6.678,0l-0.414,-0.682c-0.227,-0.351 -1.137,-1.861 -2.005,-3.329l-1.571,-2.667l0.476,-0.331c0.724,-0.496 1.571,-1.468 1.964,-2.295c0.269,-0.538 0.372,-1.22 0.372,-2.605c0,-1.716 -0.041,-1.943 -0.62,-2.895c-0.765,-1.22 -2.212,-2.233 -3.618,-2.543c-0.579,-0.124 -3.163,-0.227 -5.789,-0.227l-4.755,0Zm8.621,4.797c0.579,0.558 0.62,1.468 0.083,2.005c-0.455,0.455 -1.489,0.703 -2.419,0.6c-0.6,-0.062 -0.6,-0.083 -0.662,-1.571l-0.062,-1.489l1.282,0c1.054,0 1.385,0.083 1.778,0.455Z" style="fill:#fff;fill-rule:nonzero;"/><path d="M133.189,19.476c-0.269,4.59 -0.455,8.539 -0.455,8.787c0,0.476 0.041,0.476 2.791,0.476l2.791,0l0.021,-2.233c0.021,-1.22 0.083,-3.411 0.165,-4.9l0.124,-2.688l0.765,3.411c0.434,1.881 0.93,4.094 1.116,4.9l0.331,1.509l5.024,0l1.013,-4.507c0.558,-2.46 1.075,-4.673 1.178,-4.9c0.083,-0.227 0.165,1.054 0.165,2.915c0.021,1.84 0.083,4.032 0.145,4.9l0.145,1.592l2.75,0c2.088,0 2.77,-0.062 2.77,-0.269c0,-0.703 -0.848,-15.279 -0.951,-16.23l-0.103,-1.075l-7.381,0l-0.558,2.316c-0.289,1.282 -0.786,3.391 -1.075,4.673c-0.31,1.282 -0.62,2.212 -0.703,2.068c-0.083,-0.145 -0.579,-2.254 -1.137,-4.673l-0.992,-4.383l-7.484,0l-0.455,8.311Z" style="fill:#fff;fill-rule:nonzero;"/><path d="M156.097,11.165l0,17.574l12.819,0l0,-4.549l-7.03,0l0,-2.068l6.409,0l0,-4.549l-6.409,0l0,-1.861l6.823,0l0,-4.549l-12.612,0Z" style="fill:#fff;fill-rule:nonzero;"/><path d="M170.983,11.165l0,17.574l5.789,0l0,-2.895c0,-2.791 0.021,-2.895 0.434,-2.895c0.351,0 0.682,0.538 1.799,2.895l1.385,2.895l3.267,0c1.778,0 3.246,-0.062 3.246,-0.124c0,-0.062 -0.724,-1.344 -1.613,-2.832c-2.419,-4.073 -2.295,-3.556 -1.22,-4.507c1.385,-1.22 1.902,-2.398 1.881,-4.424c0,-2.13 -0.558,-3.287 -2.15,-4.486c-1.385,-1.034 -2.502,-1.199 -7.898,-1.199l-4.921,0Zm8.787,4.859c0.641,0.62 0.662,1.158 0.041,1.861c-0.372,0.455 -0.703,0.558 -1.757,0.662l-1.282,0.124l0,-3.163l1.241,0c1.054,0 1.344,0.083 1.757,0.517Z" style="fill:#fff;fill-rule:nonzero;"/></g></g></svg>