<?xml version="1.0" encoding="UTF-8" standalone="no"?><!DOCTYPE svg PUBLIC "-//W3C//DTD SVG 1.1//EN" "http://www.w3.org/Graphics/SVG/1.1/DTD/svg11.dtd"><svg width="100%" height="100%" viewBox="0 0 128 40" version="1.1" xmlns="http://www.w3.org/2000/svg" xmlns:xlink="http://www.w3.org/1999/xlink" xml:space="preserve" xmlns:serif="http://www.serif.com/" style="fill-rule:evenodd;clip-rule:evenodd;stroke-linejoin:round;stroke-miterlimit:2;"><path d="M127.468,13.561l-10.294,12.289l10.294,0l0,3.123l-14.347,0l0,-3.286l10.331,-12.125l-9.613,0l0,-3.05l13.631,0l0,3.05m-21.045,-3.081l0,3.081l-5.741,0l0,15.411l-3.108,0l0,-15.411l-5.739,0l0,-3.081l14.589,0m-24.69,12.23c2.176,-1.083 3.557,-3.313 3.559,-5.743c-0,-3.39 -2.783,-6.418 -6.25,-6.486l-6.818,0l0,18.492l3.109,0l0,-5.569l2.817,0l6.409,6.52l2.161,-2.143l-4.986,-5.07l-0.001,0Zm-2.916,-2.358l-3.484,0l0,-6.772l3.484,0c1.895,0 3.438,1.518 3.438,3.387c0,1.869 -1.543,3.385 -3.438,3.385Zm-20.383,-9.872l-3.732,0l-7.097,18.492l3.258,0l1.33,-3.603l8.752,0l1.328,3.603l3.259,0l-7.098,-18.492Zm-5.058,12.007l3.195,-8.347l3.189,8.347l-6.384,0Zm-11.79,-12.007l0,11.699c0,3.966 -3.209,7.192 -7.158,7.192c-3.948,0 -7.161,-3.227 -7.161,-7.192l0,-11.699l3.106,0l0,11.699c-0.068,2.284 1.781,4.141 4.057,4.141c2.27,0 4.12,-1.857 4.075,-4.141l0,-11.699l3.082,0m-24.157,14.948c1.221,-1.662 1.879,-3.673 1.876,-5.735c0,-5.342 -4.333,-9.693 -9.653,-9.693c-5.324,0 -9.653,4.351 -9.653,9.693c0,5.347 4.329,9.693 9.653,9.693c2.092,0 4.032,-0.671 5.615,-1.814l2.42,2.429l2.148,-2.154l-2.406,-2.418Zm-2.184,-2.193l-3.567,-3.581l-2.145,2.158l3.548,3.561c-1.032,0.63 -2.219,0.963 -3.428,0.962c-3.65,0 -6.617,-2.978 -6.617,-6.642c0,-3.66 2.967,-6.642 6.617,-6.642c3.644,0 6.614,2.981 6.614,6.642c0.001,1.254 -0.353,2.482 -1.022,3.543l0,-0.001Z" style="fill:#fff;"/></svg>