<?xml version="1.0" encoding="UTF-8" standalone="no"?><!DOCTYPE svg PUBLIC "-//W3C//DTD SVG 1.1//EN" "http://www.w3.org/Graphics/SVG/1.1/DTD/svg11.dtd"><svg width="100%" height="100%" viewBox="0 0 101 40" version="1.1" xmlns="http://www.w3.org/2000/svg" xmlns:xlink="http://www.w3.org/1999/xlink" xml:space="preserve" xmlns:serif="http://www.serif.com/" style="fill-rule:evenodd;clip-rule:evenodd;stroke-linejoin:round;stroke-miterlimit:2;"><g id="Layer_1-2"><g><path d="M19.547,16.645c-0.765,0 -1.47,0.258 -2.033,0.691c-1.533,-0.949 -3.468,-1.545 -5.585,-1.623c0,-0.003 0.001,-0.006 0.001,-0.009c0,-1.425 1.064,-2.606 2.439,-2.792c0.247,1.043 1.183,1.819 2.302,1.819c1.307,0 2.366,-1.059 2.366,-2.366c0,-1.307 -1.06,-2.366 -2.366,-2.366c-1.14,0 -2.092,0.806 -2.316,1.88c-1.936,0.198 -3.451,1.837 -3.451,3.824c0,0.004 0.001,0.008 0.001,0.012c-2.095,0.089 -4.008,0.685 -5.526,1.627c-0.564,-0.436 -1.272,-0.697 -2.04,-0.697c-1.845,-0.001 -3.34,1.494 -3.34,3.337c0,1.338 0.787,2.491 1.923,3.023c0.11,3.876 4.334,6.993 9.528,6.993c5.194,0 9.424,-3.121 9.528,-7c1.127,-0.536 1.906,-1.685 1.906,-3.016c0,-1.844 -1.495,-3.339 -3.339,-3.339Zm-14.303,5.331c0.056,-1.211 0.859,-2.013 1.796,-2.013c0.936,0 1.649,0.982 1.593,2.193c-0.056,1.211 -0.859,1.65 -1.796,1.65c-0.936,0 -1.649,-0.62 -1.593,-1.831Zm9.725,3.289c-0.576,1.375 -1.934,2.341 -3.518,2.341c-1.584,0 -2.942,-0.966 -3.518,-2.341c-0.068,-0.163 0.043,-0.345 0.219,-0.363c1.028,-0.104 2.139,-0.161 3.299,-0.161c1.16,0 2.271,0.057 3.299,0.161c0.176,0.018 0.287,0.2 0.219,0.363l0.001,0Zm1.095,-1.458c-0.936,0 -1.739,-0.439 -1.796,-1.65c-0.056,-1.211 0.658,-2.193 1.593,-2.193c0.936,0 1.739,0.801 1.796,2.013c0.056,1.211 -0.658,1.831 -1.593,1.831Z" style="fill:#fff;fill-rule:nonzero;"/><path d="M41.248,16.168l-1.598,3.8c-0.201,-0.101 -0.68,-0.214 -1.133,-0.214c-0.453,0 -0.906,0.113 -1.346,0.327c-0.868,0.44 -1.51,1.321 -1.51,2.592l0,6.958l-3.976,0l0,-13.538l3.863,0l0,1.9l0.076,0c0.906,-1.208 2.29,-2.102 4.089,-2.102c0.654,0 1.284,0.126 1.535,0.277l0,0.001Z" style="fill:#fff;fill-rule:nonzero;"/><path d="M40.479,22.9c0,-3.913 2.68,-7.008 6.694,-7.008c3.636,0 6.241,2.655 6.241,6.392c0,0.654 -0.063,1.271 -0.201,1.863l-9.11,0c0.415,1.422 1.648,2.529 3.498,2.529c1.019,0 2.466,-0.365 3.246,-0.969l1.233,2.97c-1.145,0.78 -2.894,1.158 -4.429,1.158c-4.29,0 -7.172,-2.768 -7.172,-6.933l0,-0.001Zm3.548,-1.246l5.725,0c0,-1.737 -1.183,-2.655 -2.63,-2.655c-1.636,0 -2.743,1.057 -3.095,2.655Z" style="fill:#fff;fill-rule:nonzero;"/><path d="M87.532,10.01c1.334,0 2.429,1.095 2.429,2.429c0,1.334 -1.095,2.429 -2.429,2.429c-1.334,0 -2.429,-1.095 -2.429,-2.429c0,-1.334 1.095,-2.429 2.429,-2.429Zm1.988,19.621l-3.976,0l0,-13.538l3.976,0l0,13.538Z" style="fill:#fff;fill-rule:nonzero;"/><path d="M64.447,10.255l-0.013,7.122l-0.076,0c-1.095,-1.044 -2.278,-1.472 -3.825,-1.472c-3.812,0 -6.341,3.07 -6.341,6.958c0,3.888 2.366,6.97 6.215,6.97c1.611,0 3.133,-0.554 4.114,-1.812l0.113,0l0,1.611l3.787,0l0,-19.377l-3.976,-0l0.001,0Zm0.189,16.149l-0.132,0l-0.887,-0.922c-0.577,0.576 -1.368,0.922 -2.29,0.922c-1.948,0 -3.309,-1.54 -3.309,-3.538c0,-1.999 1.362,-3.538 3.309,-3.538c1.948,0 3.309,1.54 3.309,3.538l0,3.538Z" style="fill:#fff;fill-rule:nonzero;"/><path d="M79.632,10.255l-0.013,7.122l-0.076,0c-1.095,-1.044 -2.278,-1.472 -3.825,-1.472c-3.812,0 -6.341,3.07 -6.341,6.958c0,3.888 2.366,6.97 6.215,6.97c1.611,0 3.133,-0.554 4.114,-1.812l0.113,0l0,1.611l3.787,0l0,-19.377l-3.976,-0l0.001,0Zm0.17,16.149l-0.132,0l-0.887,-0.922c-0.577,0.576 -1.368,0.922 -2.29,0.922c-1.948,0 -3.309,-1.54 -3.309,-3.538c0,-1.999 1.362,-3.538 3.309,-3.538c1.948,0 3.309,1.54 3.309,3.538l0,3.538Z" style="fill:#fff;fill-rule:nonzero;"/><path d="M97.231,16.093l2.907,0l0,3.385l-2.907,0l0,10.154l-3.976,0l0,-10.154l-2.894,0l0,-3.385l2.894,0l0,-3.68l3.976,0l0,3.68Z" style="fill:#fff;fill-rule:nonzero;"/></g></g></svg>