<?xml version="1.0" encoding="UTF-8" standalone="no"?><!DOCTYPE svg PUBLIC "-//W3C//DTD SVG 1.1//EN" "http://www.w3.org/Graphics/SVG/1.1/DTD/svg11.dtd"><svg width="100%" height="100%" viewBox="0 0 93 40" version="1.1" xmlns="http://www.w3.org/2000/svg" xmlns:xlink="http://www.w3.org/1999/xlink" xml:space="preserve" xmlns:serif="http://www.serif.com/" style="fill-rule:evenodd;clip-rule:evenodd;stroke-linejoin:round;stroke-miterlimit:2;"><g><path d="M0,24.281c0,0.789 0.659,1.434 1.478,1.434l37.056,0c0.817,0 1.481,-0.645 1.481,-1.434c0,-0.784 -0.664,-1.425 -1.481,-1.425l-37.056,0c-0.818,0 -1.478,0.641 -1.478,1.425Zm0,-4.285c0,0.789 0.659,1.434 1.478,1.434l37.056,0c0.817,0 1.481,-0.645 1.481,-1.434c0,-0.784 -0.664,-1.425 -1.481,-1.425l-37.056,0c-0.818,0 -1.478,0.641 -1.478,1.425Zm0,-4.285c0,0.789 0.659,1.434 1.478,1.434l37.056,0c0.817,0 1.481,-0.645 1.481,-1.434c0,-0.784 -0.664,-1.425 -1.481,-1.425l-37.056,0c-0.818,0 -1.478,0.641 -1.478,1.425Zm4.291,12.861c0,0.792 0.661,1.429 1.476,1.429l28.481,0c0.822,0 1.476,-0.636 1.476,-1.429c0,-0.79 -0.655,-1.431 -1.476,-1.431l-28.481,0c-0.816,0 -1.476,0.641 -1.476,1.431Zm1.476,-18.571l28.481,0c0.822,0 1.476,0.641 1.476,1.431c0,0.792 -0.655,1.429 -1.476,1.429l-28.481,0c-0.816,0 -1.476,-0.636 -1.476,-1.429c0,-0.79 0.661,-1.431 1.476,-1.431Z" style="fill:#fff;"/><path d="M61.439,16.84l0,-2.586l14.32,0l0,2.586l-5.714,0l0,8.931l-2.884,0l0,-8.931l-5.721,0Zm19.587,6.044l0,2.887l-2.85,0l0,-11.517l10.344,0c2.453,0 4.436,1.931 4.436,4.316c0,2.383 -1.984,4.314 -4.436,4.314l-7.494,0Zm0,-6.044l0,3.456l7.295,0c0.982,0 1.767,-0.779 1.767,-1.726c0,-0.953 -0.785,-1.73 -1.767,-1.73l-7.295,0Zm-33.908,6.064l0,2.867l-2.85,0l0,-11.517l10.626,0c2.45,0 4.435,1.931 4.435,4.315c0,1.538 -0.828,2.892 -2.072,3.641l2.072,3.562l-3.124,0l-1.691,-2.867l-7.395,0Zm0,-6.064l0,3.458l7.575,0c0.984,0 1.77,-0.782 1.77,-1.729c0,-0.952 -0.785,-1.729 -1.77,-1.729l-7.575,0Z" style="fill:#fff;"/></g></svg>