<?xml version="1.0" encoding="UTF-8" standalone="no"?><!DOCTYPE svg PUBLIC "-//W3C//DTD SVG 1.1//EN" "http://www.w3.org/Graphics/SVG/1.1/DTD/svg11.dtd"><svg width="100%" height="100%" viewBox="0 0 95 40" version="1.1" xmlns="http://www.w3.org/2000/svg" xmlns:xlink="http://www.w3.org/1999/xlink" xml:space="preserve" xmlns:serif="http://www.serif.com/" style="fill-rule:evenodd;clip-rule:evenodd;stroke-linejoin:round;stroke-miterlimit:2;"><g><path d="M23.597,15.753l0,-0.51c0,-2.888 -2.073,-5.243 -4.617,-5.243c-2.398,0 -4.375,2.086 -4.597,4.739l-0.606,0c-0.222,-2.656 -2.199,-4.739 -4.597,-4.739c-2.543,0 -4.617,2.351 -4.617,5.243l0,0.431c-2.716,1.295 -4.564,3.812 -4.564,6.7c0,4.206 3.921,7.627 8.74,7.627l10.512,0c4.819,0 8.74,-3.421 8.74,-7.627c0,-2.828 -1.775,-5.299 -4.398,-6.617l0.003,-0.003Zm-0.957,2.57l0,-3.03c0,-2.308 -1.656,-4.186 -3.689,-4.186c-2.033,0 -3.689,1.878 -3.689,4.186l0,3.03c0,2.308 1.656,4.186 3.689,4.186c2.033,0 3.689,-1.878 3.689,-4.186Zm-9.743,0l0,-3.03c0,-2.308 -1.656,-4.186 -3.689,-4.186c-2.033,0 -3.689,1.878 -3.689,4.186l0,3.03c0,2.308 1.656,4.186 3.689,4.186c2.033,0 3.689,-1.878 3.689,-4.186Z" style="fill:#fff;"/><path d="M10.671,17.985l0,-2.328c0,-0.904 -0.649,-1.643 -1.447,-1.643c-0.798,0 -1.447,0.735 -1.447,1.643l0,2.328c0,0.904 0.649,1.643 1.447,1.643c0.798,0 1.447,-0.735 1.447,-1.643Z" style="fill:#fff;"/><path d="M20.417,17.985l0,-2.328c0,-0.904 -0.649,-1.643 -1.447,-1.643c-0.798,0 -1.447,0.735 -1.447,1.643l0,2.328c0,0.904 0.649,1.643 1.447,1.643c0.798,0 1.447,-0.735 1.447,-1.643Z" style="fill:#fff;"/><path d="M56.556,22.575c0.172,0 0.291,-0.166 0.235,-0.331c-0.268,-0.788 -0.924,-2.712 -0.937,-2.752l-1.086,-3.236c-0.076,-0.225 -0.401,-0.225 -0.474,0l-1.07,3.179c-0.017,0.043 -0.676,2.014 -0.944,2.808c-0.056,0.159 0.066,0.328 0.238,0.328l4.037,0l0,0.003Zm2.06,5.054l-0.702,-1.881c-0.076,-0.205 -0.272,-0.338 -0.487,-0.338l-5.782,0c-0.219,0 -0.414,0.132 -0.487,0.338l-0.702,1.881c-0.076,0.205 -0.272,0.338 -0.487,0.338l-2.54,0c-0.368,0 -0.619,-0.364 -0.487,-0.705l5.445,-14.062c0.076,-0.199 0.272,-0.331 0.487,-0.331l3.335,0c0.215,0 0.407,0.132 0.487,0.331l5.445,14.062c0.132,0.341 -0.123,0.705 -0.487,0.705l-2.54,0c-0.219,0 -0.414,-0.132 -0.487,-0.338l-0.01,0Z" style="fill:#fff;fill-rule:nonzero;"/><path d="M86.839,12.865c-4.444,0 -7.677,3.153 -7.677,7.551c0,4.398 3.232,7.551 7.677,7.551c4.444,0 7.65,-3.146 7.654,-7.541l0,-0.01c0,-4.398 -3.232,-7.551 -7.654,-7.551Zm0,12.005c-2.55,0 -4.176,-1.944 -4.176,-4.484c0,-2.54 1.626,-4.484 4.176,-4.484c2.55,0 4.156,1.924 4.156,4.484c0,2.56 -1.626,4.484 -4.156,4.484Z" style="fill:#fff;fill-rule:nonzero;"/><path d="M72.678,12.865l-8.475,0c-0.288,0 -0.52,0.232 -0.52,0.52l0,14.062c0,0.285 0.235,0.52 0.52,0.52l2.189,0c0.288,0 0.52,-0.232 0.52,-0.52l0,-3.666c0,-0.666 0.54,-1.205 1.209,-1.205l4.557,0c3.275,0 5.097,-2.219 5.097,-4.845c0,-2.626 -1.798,-4.868 -5.097,-4.868l0,0.003Zm-5.806,3.454c0,-0.139 0.113,-0.248 0.248,-0.248l5.362,0c0.977,0 1.765,0.805 1.765,1.795c0,0.99 -0.792,1.795 -1.765,1.795l-5.362,0c-0.139,0 -0.248,-0.113 -0.248,-0.248l0,-3.093Z" style="fill:#fff;fill-rule:nonzero;"/><path d="M39.367,15.584c-1.083,0.03 -2.666,0.414 -2.679,1.355c-0.04,2.656 9.455,0.811 9.455,6.6c0,2.537 -2.732,4.637 -6.693,4.637c-3.04,0 -5.577,-1.007 -6.961,-2.305c-0.129,-0.123 -0.149,-0.331 -0.043,-0.477l1.461,-1.785c0.07,-0.096 0.169,-0.146 0.285,-0.146c0.083,0 0.176,0.026 0.265,0.079c1.5,0.868 3.256,1.54 5.13,1.54c1.338,0 3.017,-0.619 3.027,-1.6c0.026,-2.649 -9.392,-1.401 -9.392,-6.385c0,-2.355 2.487,-4.497 6.021,-4.497c2.593,0 4.981,0.652 6.388,1.891c0.142,0.126 0.162,0.344 0.046,0.493l-1.547,1.788c-0.076,0.07 -0.169,0.126 -0.282,0.132c-0.129,0.007 -0.229,-0.056 -0.252,-0.079c-1.007,-0.911 -2.517,-1.285 -4.226,-1.239l-0.003,-0.003Z" style="fill:#fff;fill-rule:nonzero;"/></g></svg>