<?xml version="1.0" encoding="UTF-8" standalone="no"?><!DOCTYPE svg PUBLIC "-//W3C//DTD SVG 1.1//EN" "http://www.w3.org/Graphics/SVG/1.1/DTD/svg11.dtd"><svg width="100%" height="100%" viewBox="0 0 194 40" version="1.1" xmlns="http://www.w3.org/2000/svg" xmlns:xlink="http://www.w3.org/1999/xlink" xml:space="preserve" xmlns:serif="http://www.serif.com/" style="fill-rule:evenodd;clip-rule:evenodd;stroke-linejoin:round;stroke-miterlimit:2;"><g><path d="M29.388,23.788c0,-0.999 0.595,-1.659 1.468,-1.659c0.934,0 1.529,0.7 1.529,1.381c0,0.339 -0.065,0.595 -0.191,0.851c0.508,0.361 1.294,0.595 2.21,0.595c1.529,0 2.506,-0.681 2.506,-1.889c0,-1.147 -1.168,-1.698 -2.571,-2.189c-2.593,-0.934 -4.417,-1.763 -4.417,-4.356c0,-2.232 1.806,-3.974 4.63,-3.974c2.614,0 4.63,1.338 4.63,3.018c0,0.999 -0.617,1.572 -1.424,1.572c-0.977,0 -1.529,-0.721 -1.529,-1.424c0,-0.339 0.065,-0.487 0.148,-0.66c-0.382,-0.234 -0.977,-0.425 -1.85,-0.425c-1.381,0 -2.189,0.7 -2.189,1.72c0,1.147 1.168,1.659 2.571,2.167c2.506,0.891 4.399,1.763 4.399,4.356c0,2.593 -2.059,4.165 -4.929,4.165c-2.87,0 -4.99,-1.55 -4.99,-3.249Zm16.359,0.851l1.742,0l0,-9.75l-2.593,0l0,2.21l-2.272,0l0,-4.291l12.13,0l0,4.291l-2.272,0l0,-2.21l-2.593,0l0,9.75l1.742,0l0,2.145l-5.885,0l0,-2.145Zm12.826,-0l1.601,0l0,-9.689l-1.594,0l0,-2.145l5.416,0c3.209,0 5.502,1.381 5.502,4.226c0,1.806 -1.103,3.187 -2.636,3.804l2.145,3.804l1.594,0l0,2.145l-3.231,0l-2.805,-5.311c-0.296,0.022 -0.573,0.043 -0.851,0.043c-0.447,0 -0.851,0 -1.147,-0.022l0,3.144l1.742,0l0,2.145l-5.737,0l0,-2.145Zm8.441,-7.522c0,-1.464 -1.212,-2.167 -3.144,-2.167l-1.294,0l0,4.482c0.256,0.022 0.595,0.043 1.359,0.043c1.806,0 3.079,-0.891 3.079,-2.358Zm6.353,7.522l1.212,0l3.483,-9.707l-1.529,0l0,-2.124l7.904,0l0,2.124l-1.529,0l3.483,9.707l1.212,0l0,2.145l-5.376,0l0,-2.124l1.615,0l-0.786,-2.293l-5.225,0l-0.786,2.293l1.698,0l0,2.124l-5.376,0l0,-2.145Zm9.025,-4.269l-1.954,-5.502l-1.954,5.502l3.909,0Zm10.157,4.269l1.742,0l0,-9.75l-2.593,0l0,2.21l-2.272,0l0,-4.291l12.13,0l0,4.291l-2.272,0l0,-2.21l-2.593,0l0,9.75l1.742,0l0,2.145l-5.885,0l0,-2.145Zm12.407,0l1.594,0l0,-9.689l-1.594,0l0,-2.145l10.431,0l0,3.995l-2.293,0l0,-1.868l-4.143,0l0,3.739l4.226,0l0,2.041l-4.226,0l0,3.952l4.165,0l0,-1.868l2.293,0l0,3.995l-10.453,0l0,-2.153Zm13.302,-4.843c0,-4.208 3.27,-7.244 7.349,-7.244c3.249,0 5.416,1.698 5.416,3.379c0,1.02 -0.66,1.72 -1.529,1.72c-0.956,0 -1.615,-0.595 -1.615,-1.507c0,-0.278 0.065,-0.552 0.148,-0.721c-0.404,-0.317 -1.212,-0.638 -2.484,-0.638c-2.719,0 -4.799,2.081 -4.799,4.99c0,2.91 1.954,5.034 4.907,5.034c1.637,0 2.975,-0.721 4.013,-1.85l1.594,1.659c-1.359,1.507 -3.379,2.423 -5.607,2.423c-4.312,0 -7.392,-2.888 -7.392,-7.244Zm15.995,4.843l1.594,0l0,-9.689l-1.594,0l0,-2.145l5.737,0l0,2.145l-1.742,0l0,3.696l6.458,0l0,-3.696l-1.742,0l0,-2.145l5.737,0l0,2.145l-1.594,0l0,9.689l1.594,0l0,2.145l-5.737,0l0,-2.145l1.742,0l0,-3.887l-6.458,0l0,3.887l1.742,0l0,2.145l-5.737,0l0,-2.145Zm18.57,0l1.594,0l0,-9.689l-1.594,0l0,-2.145l10.431,0l0,3.995l-2.293,0l0,-1.868l-4.143,0l0,3.739l4.226,0l0,2.041l-4.226,0l0,3.952l4.165,0l0,-1.868l2.293,0l0,3.995l-10.453,0l0,-2.153Zm13.951,-0l1.601,0l0,-9.689l-1.594,0l0,-2.145l5.416,0c3.209,0 5.502,1.381 5.502,4.226c0,1.806 -1.103,3.187 -2.636,3.804l2.145,3.804l1.594,0l0,2.145l-3.231,0l-2.805,-5.311c-0.296,0.022 -0.573,0.043 -0.851,0.043c-0.447,0 -0.851,0 -1.147,-0.022l0,3.144l1.742,0l0,2.145l-5.737,0l0,-2.145Zm8.441,-7.522c0,-1.464 -1.212,-2.167 -3.144,-2.167l-1.294,0l0,4.482c0.256,0.022 0.595,0.043 1.359,0.043c1.806,0 3.079,-0.891 3.079,-2.358Zm8.686,7.522l1.767,0l0,-3.187l-3.974,-6.501l-1.403,0l0,-2.145l5.29,0l0,2.145l-1.233,0l2.571,4.482l2.549,-4.482l-1.316,0l0,-2.145l5.29,0l0,2.145l-1.403,0l-3.974,6.501l0,3.187l1.763,0l0,2.145l-5.928,0l0,-2.145Z" style="fill:#fff;fill-rule:nonzero;"/><path d="M22.136,12.029l-2.91,4.157l-0.18,4.889c0.032,0.018 0.069,0.032 0.101,0.058c0.35,0.245 0.436,0.732 0.191,1.082c-0.245,0.348 -0.732,0.434 -1.082,0.191c-0.348,-0.245 -0.434,-0.732 -0.191,-1.082c0.087,-0.126 0.209,-0.216 0.339,-0.27l0.187,-5.077l3.112,-4.442c-0.195,-0.213 -0.397,-0.418 -0.609,-0.62l-3.35,4.785l-0.27,7.053l-8.827,4.637c-0.004,-0.054 -0.007,-0.108 -0.018,-0.162l0.613,-0.873l7.608,-3.995l0.263,-6.873l3.505,-5.001c-0.222,-0.188 -0.451,-0.368 -0.685,-0.541l-3.894,5.56c0.083,0.141 0.126,0.31 0.105,0.487c-0.053,0.422 -0.442,0.728 -0.865,0.678c-0.422,-0.053 -0.728,-0.442 -0.678,-0.865c0.053,-0.422 0.442,-0.728 0.865,-0.678c0.014,0 0.029,0.007 0.047,0.011l3.894,-5.56c-0.242,-0.159 -0.487,-0.314 -0.736,-0.454l-3.505,5.005l-6.368,2.596l-1.139,8.477l-0.638,0.909c-0.047,0.007 -0.09,0.022 -0.137,0.032l1.327,-9.873l6.537,-2.665l3.35,-4.785c-0.26,-0.13 -0.523,-0.249 -0.79,-0.361l-3.112,4.442l-4.706,1.925l0,0.05c-0.053,0.422 -0.442,0.728 -0.865,0.678c-0.422,-0.053 -0.728,-0.442 -0.678,-0.865c0.053,-0.422 0.442,-0.728 0.865,-0.678c0.177,0.022 0.328,0.101 0.444,0.216l4.522,-1.85l2.913,-4.157c-5.167,-1.843 -11.131,-0.105 -14.43,4.608c-3.959,5.654 -2.585,13.449 3.068,17.409c5.654,3.959 13.449,2.585 17.409,-3.068c3.299,-4.713 2.892,-10.904 -0.602,-15.13l0,-0.011Zm-14.275,15.912c-0.245,0.348 -0.732,0.434 -1.082,0.191c-0.348,-0.245 -0.434,-0.732 -0.191,-1.082c0.184,-0.263 0.501,-0.379 0.797,-0.314l4.5,-6.429c-0.288,-0.343 -0.389,-0.819 -0.22,-1.266c0.187,-0.488 0.658,-0.812 1.181,-0.812c0.694,0 1.265,0.571 1.265,1.265c0,0.155 -0.028,0.308 -0.084,0.453c-0.247,0.64 -0.972,0.968 -1.615,0.732l-4.507,6.443c0.141,0.252 0.137,0.57 -0.04,0.822l-0.004,-0.004Z" style="fill:#fff;fill-rule:nonzero;"/></g></svg>