<?xml version="1.0" encoding="UTF-8" standalone="no"?><!DOCTYPE svg PUBLIC "-//W3C//DTD SVG 1.1//EN" "http://www.w3.org/Graphics/SVG/1.1/DTD/svg11.dtd"><svg width="100%" height="100%" viewBox="0 0 161 40" version="1.1" xmlns="http://www.w3.org/2000/svg" xmlns:xlink="http://www.w3.org/1999/xlink" xml:space="preserve" xmlns:serif="http://www.serif.com/" style="fill-rule:evenodd;clip-rule:evenodd;stroke-linejoin:round;stroke-miterlimit:2;"><path d="M29.594,17.44c-1.803,0 -3.328,1.367 -5.259,3.997c-0.887,1.232 -2.029,3.005 -2.532,3.757c-0.285,0.383 -0.511,0.323 -0.353,-0.09l1.337,-3.426l4.778,-13.148c0.233,-0.541 -1.675,-1.195 -2.021,-0.541l0,0.068c-0.819,1.743 -2.344,2.314 -5.071,2.216c-2.727,-0.098 -8.212,-1.608 -12.359,-1.608c-5.199,0 -8.114,3.201 -8.114,6.972c0,2.119 1.39,3.486 3.261,3.418c0.857,0.07 1.639,-0.518 1.811,-1.36c0.019,-0.073 0.028,-0.148 0.028,-0.224c0,-0.495 -0.407,-0.902 -0.902,-0.902c-0.102,0 -0.203,0.017 -0.299,0.051c-1.841,0.383 -2.472,-0.887 -2.472,-1.871c0,-2.344 1.998,-4.087 6.176,-4.087c1.074,0 3.171,0.255 5.387,0.503c-2.817,8.49 -5.672,16.356 -6.371,18.219c-0.133,0.508 -0.515,0.916 -1.014,1.082c-1.007,0.316 -1.33,0.346 -1.961,0.503c-0.954,0.225 -0.796,1.014 -0.128,0.984c1.202,-0.068 2.757,-0.225 3.989,-0.225c1.503,0 4.215,0.128 4.628,0.158c0.751,0.068 0.856,-0.856 0.225,-0.947c-0.443,-0.068 -1.172,-0.188 -1.871,-0.285c-0.826,-0.098 -1.074,-0.443 -0.887,-1.112c0.413,-1.104 5.259,-15.109 6.213,-18.031c1.503,0.188 2.787,0.316 3.636,0.376c1.751,0.105 3.433,0 4.884,-1.059l-3.832,10.819l-3.358,9.264c-0.571,1.503 1.578,1.615 2.059,0.699c1.631,-3.26 3.55,-6.367 5.732,-9.286c1.397,-2.029 2.697,-3.238 3.614,-3.238c0.699,0 1.104,0.383 1.104,1.24c0,1.142 -0.533,2.915 -1.615,5.928c-1.42,3.929 -1.961,4.974 -2.434,5.004c-0.473,0.03 -1.397,-1.142 -1.901,-1.27c-0.488,-0.147 -1.016,0.083 -1.24,0.541c-0.255,0.443 -0.09,1.871 2.059,1.968c2.569,0.12 4.756,-2.509 6.273,-6.717c1.044,-2.855 1.3,-4.313 1.3,-5.357c0,-2.029 -0.947,-2.983 -2.502,-2.983Zm43.501,13.591c-1.615,-0.376 -2.254,-0.977 -2.254,-1.615l0.068,-1.33c0,-0.977 0.751,-15.394 0.917,-17.551c0.128,-1.585 -1.683,-1.503 -2.442,-0.571l-1.503,1.931c-1.848,2.314 -9.279,11.916 -12.907,16.416c-1.02,1.24 -2.365,2.171 -3.884,2.69c-0.601,0.158 -0.541,0.796 0.128,0.796c0.533,0 2.119,-0.188 3.291,-0.188c1.172,0 3.328,0.09 3.869,0.12c0.541,0.03 0.751,-0.571 0,-0.751c-1.503,-0.443 -2.254,-0.751 -2.254,-1.142c0,-0.391 0.346,-0.917 1.172,-2.059c0.631,-0.887 2.149,-2.885 3.832,-5.101l7.243,0c-0.158,3.043 -0.346,6.243 -0.376,6.874c0.007,0.416 -0.29,0.78 -0.699,0.856l-1.615,0.473c-0.443,0.128 -0.639,0.954 0.06,0.924c1.585,-0.098 2.915,-0.225 3.614,-0.225c1.044,0 2.817,0.225 3.644,0.255c0.826,0.03 0.706,-0.639 0.098,-0.804Zm-4.508,-11.623c0,0.571 -0.068,1.202 -0.098,1.871l-6.198,0c2.885,-3.809 5.928,-7.799 6.183,-8.182c0.255,-0.383 0.503,-0.188 0.473,0.098c-0.098,1.397 -0.255,3.959 -0.376,6.213l0.015,0Zm-27.205,-1.743c-2.757,-0.128 -5.83,3.073 -7.288,7.889c-1.427,4.658 0.158,6.589 1.901,6.589c1.27,0 3.388,-1.645 4.56,-3.546c0.413,-0.669 0.098,-1.367 -0.533,-0.669c-0.796,0.856 -1.871,1.773 -3.005,1.555c-0.751,-0.128 -1.458,-1.427 -0.346,-4.658c2.66,-0.128 5.793,-1.645 6.589,-4.155c0.691,-2.164 -0.736,-2.975 -1.878,-3.005Zm0.285,2.344c-0.669,1.961 -3.005,3.606 -4.688,4.02c1.615,-4.275 3.163,-5.417 4.147,-5.387c0.541,0 0.796,0.616 0.541,1.367Zm40.526,-0.751l2.569,0c0.571,0 0.856,-0.158 0.977,-0.571c0.225,-0.541 0.098,-0.796 -0.473,-0.796l-2.569,0l1.24,-3.291c0.158,-0.443 0,-0.669 -0.255,-0.669l-1.33,0c-0.346,0 -0.473,0.098 -0.631,0.541l-1.33,3.441l-2.029,0c-0.285,0 -0.511,-0.06 -0.699,0.796c-0.068,0.413 0,0.571 0.413,0.571l1.803,0l-3.073,8.016c-0.487,1.148 -0.911,2.322 -1.27,3.516c-0.188,1.112 0.481,1.555 1.3,1.397c1.615,-0.285 3.929,-1.968 6.01,-4.598c0.571,-0.751 0.098,-1.232 -0.473,-0.631c-0.862,0.855 -1.784,1.649 -2.757,2.374c-0.826,0.541 -1.232,0.158 -0.947,-0.631l3.524,-9.466Zm28.58,-0.751c0.188,-0.443 -0.443,-0.571 -1.901,-0.849c-0.443,-0.098 -0.699,0.376 -1.458,1.961c-0.641,-0.775 -1.629,-1.179 -2.63,-1.074c-2.314,0.06 -5.169,2.149 -7.513,5.349c-1.871,2.569 -2.442,4.343 -2.089,6.243c0.213,1.102 1.192,1.903 2.314,1.893c1.743,0.06 3.486,-1.585 5.259,-3.396l1.112,-1.112c0.316,-0.316 0.601,-0.128 0.406,0.255c-0.573,0.996 -1.049,2.045 -1.42,3.133c-0.225,1.112 0.376,1.397 1.232,1.27c1.645,-0.218 4.215,-1.743 6.183,-4.463c0.563,-0.796 0,-1.24 -0.511,-0.639c-0.86,0.91 -1.803,1.738 -2.817,2.472c-0.856,0.571 -1.24,0.413 -0.984,-0.255c0.128,-0.413 0.601,-1.555 4.816,-10.789Zm-7.318,8.264c-1.998,1.841 -3.614,3.171 -4.726,3.171c-0.751,0 -1.104,-0.323 -1.172,-0.856c-0.188,-1.397 1.082,-3.516 2.126,-4.944c1.803,-2.374 4.027,-4.343 5.447,-4.343c0.984,0 1.503,0.413 1.585,1.014c0.188,1.097 -1.645,4.455 -3.261,5.913l-0,0.045Zm44.012,-9.549c-1.555,0 -3.644,1.104 -5.612,3.291c-0.631,0.751 -0.158,1.24 0.443,0.699c0.668,-0.611 1.39,-1.162 2.156,-1.645c0.669,-0.413 1.112,-0.098 0.917,0.503c-0.158,0.481 -0.631,1.653 -0.977,2.442l-2.156,4.944c-0.601,1.397 -1.172,2.787 -1.3,3.171c-0.285,0.984 0.218,1.503 1.014,1.503c1.503,0 3.584,-1.24 5.575,-3.456c0.631,-0.751 0.158,-1.232 -0.443,-0.699c-0.738,0.655 -1.521,1.258 -2.344,1.803c-0.661,0.406 -1.142,0.09 -0.917,-0.511c0.158,-0.443 0.631,-1.458 0.947,-2.186l2.186,-4.944c0.639,-1.458 1.367,-3.005 1.503,-3.418c0.24,-0.962 -0.233,-1.495 -0.992,-1.495Zm1.901,-7.671c-0.959,-0.061 -1.806,0.659 -1.901,1.615c-0.017,0.092 -0.025,0.185 -0.025,0.278c0,0.803 0.616,1.483 1.415,1.563c0.934,0.031 1.748,-0.659 1.871,-1.585c0.022,-0.104 0.033,-0.211 0.033,-0.317c0,-0.793 -0.604,-1.467 -1.392,-1.553Zm8.775,8.144c-2.787,-0.128 -5.77,3.103 -7.228,7.859c-1.458,4.756 0.128,6.589 1.968,6.589c1.27,0 3.388,-1.503 4.658,-3.546c0.413,-0.669 0.098,-1.367 -0.541,-0.669c-0.789,0.856 -1.803,1.645 -2.847,1.585c-1.044,-0.06 -1.781,-1.503 -0.571,-4.974c1.773,-5.004 3.005,-5.575 3.546,-5.612c0.541,-0.038 1.645,1.397 2.314,1.555c0.484,0.154 1.013,-0.075 1.232,-0.533c0.285,-0.541 0.105,-2.126 -2.532,-2.254Zm-17.994,0.218l-2.569,0l1.232,-3.291c0.165,-0.443 0,-0.669 -0.248,-0.669l-1.337,0c-0.346,0 -0.473,0.098 -0.631,0.541l-1.3,3.418l-2.059,0c-0.285,0 -0.503,-0.06 -0.699,0.796c-0.06,0.413 0.038,0.571 0.413,0.571l1.811,0l-3.073,8.016c-0.49,1.147 -0.914,2.321 -1.27,3.516c-0.195,1.112 0.473,1.555 1.3,1.397c1.615,-0.285 3.929,-1.968 6.01,-4.598c0.571,-0.751 0.098,-1.232 -0.481,-0.631c-0.864,0.856 -1.788,1.649 -2.765,2.374c-0.826,0.541 -1.24,0.158 -0.954,-0.631l3.539,-9.466l2.569,0c0.571,0 0.856,-0.158 0.984,-0.571c0.218,-0.518 0.09,-0.774 -0.473,-0.774Zm-47.783,8.941c-0.898,0.893 -1.852,1.729 -2.855,2.502c-0.826,0.541 -1.232,0.158 -0.947,-0.631l7.731,-20.473c0.128,-0.316 0.06,-0.751 -0.383,-0.751c-1.51,0.093 -3.015,0.263 -4.508,0.511c-0.255,0.06 -0.383,0.443 -0.098,0.533l1.713,0.639c0.346,0.128 0.383,0.285 0.158,0.856l-6.642,17.258c-0.49,1.147 -0.914,2.321 -1.27,3.516c-0.188,1.112 0.473,1.555 1.3,1.397c1.713,-0.285 4.147,-1.968 6.273,-4.726c0.571,-0.759 0.098,-1.232 -0.473,-0.631Zm32.599,0.06l1.871,-3.757c1.014,-2.059 1.21,-3.005 1.21,-3.704c0,-1.36 -0.699,-2.059 -2.126,-2.059c-1.998,0 -3.584,1.585 -6.01,5.004c-0.669,0.917 -1.112,1.615 -1.998,2.757c-0.285,0.353 -0.503,0.316 -0.346,-0.098l1.232,-3.073c0.491,-1.067 0.832,-2.198 1.014,-3.358c0,-0.819 -0.346,-1.202 -1.232,-1.202c-1.082,0 -2.442,0.571 -4.816,3.584c-0.856,1.104 0,1.232 0.285,0.887c0.473,-0.481 1.503,-1.555 2.186,-2.156c0.684,-0.601 1.292,-0.413 1.044,0.316c-0.164,0.573 -0.365,1.136 -0.601,1.683l-3.757,9.219c-0.511,1.27 1.901,1.555 2.314,0.601c1.3,-3.005 4.147,-6.762 5.319,-8.43c1.713,-2.442 3.201,-4.117 4.275,-4.117c0.571,0 0.826,0.316 0.826,0.917c-0.056,0.523 -0.206,1.032 -0.443,1.503l-2.66,5.672c-0.751,1.503 -1.458,3.103 -1.585,3.516c-0.316,0.984 0.225,1.503 1.074,1.503c1.503,0 3.584,-1.24 5.582,-3.456c0.631,-0.751 0.158,-1.232 -0.443,-0.699c-0.739,0.656 -1.523,1.261 -2.344,1.811c-0.691,0.443 -1.172,0.09 -0.947,-0.541c0.158,-0.451 0.729,-1.623 1.074,-2.322Z" style="fill:#fff;fill-rule:nonzero;"/></svg>