<?xml version="1.0" encoding="UTF-8" standalone="no"?>
<!DOCTYPE svg PUBLIC "-//W3C//DTD SVG 1.1//EN" "http://www.w3.org/Graphics/SVG/1.1/DTD/svg11.dtd">
<svg width="100%" height="100%" viewBox="0 0 72 40" version="1.1" xmlns="http://www.w3.org/2000/svg" xmlns:xlink="http://www.w3.org/1999/xlink" xml:space="preserve" xmlns:serif="http://www.serif.com/" style="fill-rule:evenodd;clip-rule:evenodd;stroke-linejoin:round;stroke-miterlimit:2;">
    <g id="Group-5" serif:id="Group 5" transform="matrix(1,0,0,1,0,10)">
        <g>
            <g id="Vector" transform="matrix(0.416667,0,0,0.416667,0,-0)">
                <path d="M62.134,0.354C60.845,0.787 59.71,1.597 58.877,2.683C58.043,3.769 57.544,5.081 57.448,6.456C57.348,7.828 57.655,9.2 58.324,10.397C58.995,11.594 60.001,12.563 61.214,13.181C62.427,13.799 63.795,14.039 65.141,13.868C66.488,13.697 67.757,13.128 68.785,12.226C69.814,11.324 70.554,10.137 70.914,8.811C71.276,7.482 71.239,6.078 70.813,4.77C70.238,3.02 69.002,1.569 67.374,0.741C65.745,-0.087 63.861,-0.227 62.134,0.351L62.134,0.354ZM63.453,2.688L64.652,1.082C65.66,1.147 66.636,1.475 67.482,2.035L67.54,3.914C67.528,3.919 67.517,3.931 67.505,3.938L66.23,4.89C66.211,4.904 66.193,4.92 66.175,4.936L63.979,4.29C63.975,4.279 63.97,4.265 63.966,4.251L63.467,2.727C63.463,2.713 63.458,2.699 63.453,2.688ZM60.545,2.462L62.45,3.024C62.455,3.038 62.459,3.05 62.464,3.063L62.962,4.588C62.967,4.602 62.971,4.616 62.976,4.627L61.594,6.479C61.571,6.477 61.548,6.474 61.523,6.474L59.939,6.484L59.897,6.484L58.836,4.941C59.184,3.977 59.773,3.123 60.545,2.459L60.545,2.462ZM62.411,10.937L60.635,11.534C59.846,10.889 59.24,10.047 58.876,9.087L59.904,7.551L59.945,7.551L61.53,7.542C61.55,7.542 61.571,7.54 61.592,7.538L62.921,9.306C62.916,9.32 62.909,9.336 62.904,9.35L62.425,10.879C62.42,10.898 62.413,10.916 62.411,10.935L62.411,10.937ZM67.482,11.883C66.633,12.447 65.651,12.777 64.638,12.837L63.419,11.244C63.423,11.23 63.43,11.218 63.433,11.204L63.915,9.673C63.919,9.655 63.926,9.636 63.928,9.62L66.159,8.871C66.172,8.882 66.186,8.894 66.202,8.905L67.489,9.841C67.489,9.841 67.512,9.855 67.524,9.864L67.482,11.88L67.482,11.883ZM68.146,9.007C68.132,8.995 68.119,8.981 68.103,8.972L66.816,8.038C66.804,8.029 66.79,8.02 66.777,8.013L66.799,5.789C66.818,5.78 66.837,5.769 66.853,5.755L68.13,4.802C68.13,4.802 68.151,4.786 68.162,4.777L69.892,5.386C70.164,6.375 70.174,7.418 69.922,8.412L68.146,9.007Z" style="fill:white;fill-rule:nonzero;"/>
            </g>
            <g id="Union" transform="matrix(0.416667,0,0,0.416667,0,-0)">
                <path d="M140.019,47.31L132.386,47.31L132.386,0.697L140.019,0.031L140.019,47.31Z" style="fill:white;fill-rule:nonzero;"/>
                <path d="M149.973,27.595L147.907,21.442C148.654,20.948 149.678,20.531 150.976,20.187C152.277,19.806 153.596,19.504 154.933,19.276C156.313,19.048 157.394,18.935 158.183,18.935C160.466,18.935 162.553,19.373 164.442,20.245C166.333,21.119 167.83,22.334 168.932,23.891C170.074,25.411 170.643,27.156 170.643,29.133L170.643,47.308L165.625,47.308L164.325,44.345C163.261,45.408 162.08,46.282 160.782,46.965C159.521,47.649 158.183,47.991 156.765,47.991C153.262,47.991 150.662,47.174 148.97,45.541C147.275,43.87 146.428,41.706 146.428,39.047C146.428,36.199 147.434,34.034 149.44,32.551C151.449,31.031 154.069,30.254 157.297,30.214L162.906,30.214L162.906,30.157C162.867,28.789 162.435,27.726 161.608,26.967C160.822,26.169 159.719,25.77 158.3,25.77C156.961,25.77 155.505,25.959 153.93,26.34C152.355,26.721 151.036,27.138 149.973,27.592L149.973,27.595ZM153.045,39.048C153.045,39.581 153.202,40.092 153.518,40.586C153.831,41.042 154.244,41.42 154.756,41.725C155.307,41.99 155.939,42.124 156.647,42.124C157.71,42.124 158.773,41.895 159.837,41.441C160.939,40.984 161.981,40.302 162.966,39.391L162.966,35.175L157.177,35.175C155.84,35.175 154.816,35.574 154.108,36.372C153.398,37.17 153.045,38.062 153.045,39.048Z" style="fill:white;"/>
                <path d="M107.757,35.694L127.054,35.694L127.054,33.416C127.054,30.793 126.581,28.381 125.638,26.179C124.731,23.976 123.316,22.228 121.387,20.937C119.459,19.606 116.962,18.942 114.01,18.942C111.058,18.942 108.5,19.55 106.337,20.766C104.174,21.944 102.502,23.635 101.321,25.837C100.179,28.003 99.61,30.604 99.61,33.529C99.61,36.453 100.219,39.017 101.439,41.22C102.658,43.385 104.488,45.055 106.928,46.233C109.406,47.412 112.494,48 116.194,48C117.847,48 119.302,47.848 120.562,47.543C121.86,47.278 123.02,46.898 124.044,46.404C125.107,45.871 126.071,45.263 126.936,44.58L124.694,39.225C123.435,39.947 122.158,40.535 120.86,40.991C119.561,41.446 118.067,41.674 116.373,41.674C114.485,41.674 112.951,41.427 111.771,40.934C110.59,40.44 109.686,39.758 109.056,38.883C108.427,37.973 107.993,36.909 107.757,35.694ZM119.796,30.738L107.813,30.738C108.048,29.52 108.443,28.515 108.994,27.717C109.545,26.921 110.234,26.312 111.06,25.895C111.886,25.477 112.813,25.268 113.835,25.268C114.856,25.268 115.762,25.477 116.549,25.895C117.377,26.275 118.064,26.863 118.615,27.662C119.166,28.459 119.561,29.483 119.796,30.738Z" style="fill:white;"/>
                <path d="M79.564,47.31L68.896,21.165L76.472,18.916L83.176,36.008L89.455,19.613L97.573,19.613L86.195,47.31L79.564,47.31Z" style="fill:white;fill-rule:nonzero;"/>
                <rect x="57.418" y="19.613" width="7.753" height="27.698" style="fill:white;fill-rule:nonzero;"/>
                <path d="M43.421,47.31L35.728,47.31L35.728,19.613L39.805,19.613L42.298,23.736C43.087,23.026 44.053,22.316 45.197,21.605C46.341,20.856 47.506,20.224 48.689,19.712C49.911,19.2 51.036,18.942 52.063,18.942L53.601,25.097C52.695,25.097 51.668,25.314 50.524,25.747C49.38,26.181 48.177,26.774 46.915,27.523C45.693,28.273 44.528,29.14 43.424,30.127L43.424,47.308L43.421,47.31Z" style="fill:white;fill-rule:nonzero;"/>
                <path d="M18.565,10.021C12.88,11.73 4.942,11.449 0,10.155L2.405,18.944C6.049,19.613 11.45,19.613 14.541,19.613L14.541,47.31L22.294,47.31L22.294,17.931C25.599,16.825 29.067,15.173 31.427,12.207C34.166,8.76 35.892,4.062 35.73,0.033L28.004,0.033C28.004,2.224 26.837,4.311 25.461,6.043C24.017,7.858 21.367,9.179 18.565,10.021Z" style="fill:white;fill-rule:nonzero;"/>
            </g>
        </g>
    </g>
</svg>
